<?xml version="1.0" encoding="UTF-8" standalone="no"?>
<svg width="237.067mm" height="142.875mm"
 viewBox="0 0 672 405"
 xmlns="http://www.w3.org/2000/svg" xmlns:xlink="http://www.w3.org/1999/xlink"  version="1.2" baseProfile="tiny">
<title>Qt SVG Document</title>
<desc>MATLAB, The MathWorks, Inc. Version 25.1.0.2973910 R2025a Update 1</desc>
<defs>
</defs>
<g fill="none" stroke="black" stroke-width="1" fill-rule="evenodd" stroke-linecap="square" stroke-linejoin="bevel" >

<g fill="#ffffff" fill-opacity="1" stroke="none" transform="matrix(0.375,0,0,0.375,0,0)"
font-family="MS Shell Dlg 2" font-size="7.875" font-weight="400" font-style="normal" 
>
<path vector-effect="none" fill-rule="evenodd" d="M0,0 L1791,0 L1791,1079 L0,1079 L0,0"/>
</g>

<g fill="#ffffff" fill-opacity="1" stroke="none" transform="matrix(3.75e-05,0,0,3.75e-05,0,0)"
font-family="MS Shell Dlg 2" font-size="7.875" font-weight="400" font-style="normal" 
>
<path vector-effect="none" fill-rule="evenodd" d="M2.33e+06,810000 L2.33e+06,9.59e+06 L1.62e+07,9.59e+06 L1.62e+07,810000 L2.33e+06,810000"/>
</g>

<g fill="#212121" fill-opacity="1" stroke="#212121" stroke-opacity="1" stroke-width="1.33333" stroke-linecap="square" stroke-linejoin="round" transform="matrix(0.375,0,0,0.375,0,0)"
font-family="MS Shell Dlg 2" font-size="7.875" font-weight="400" font-style="normal" 
>
<polyline fill="none" vector-effect="none" points="233,959 1620,959 " />
<polyline fill="none" vector-effect="none" points="233,959 233,945.13 " />
<polyline fill="none" vector-effect="none" points="510.4,959 510.4,945.13 " />
<polyline fill="none" vector-effect="none" points="787.8,959 787.8,945.13 " />
<polyline fill="none" vector-effect="none" points="1065.2,959 1065.2,945.13 " />
<polyline fill="none" vector-effect="none" points="1342.6,959 1342.6,945.13 " />
<polyline fill="none" vector-effect="none" points="1620,959 1620,945.13 " />
</g>

<g fill="#212121" fill-opacity="1" stroke="none" transform="matrix(0.375,0,0,0.375,84.75,372.625)"
font-family="MS Shell Dlg 2" font-size="7.875" font-weight="400" font-style="normal" 
>
<path vector-effect="none" fill-rule="evenodd" d="M1.07813,-9.17188 C1.07813,-11.3802 1.30469,-13.1536 1.75781,-14.4922 C2.21094,-15.8307 2.88281,-16.8646 3.77344,-17.5938 C4.66406,-18.3229 5.78646,-18.6875 7.14063,-18.6875 C8.14063,-18.6875 9.01823,-18.487 9.77344,-18.0859 C10.5286,-17.6849 11.151,-17.1042 11.6406,-16.3438 C12.1302,-15.5833 12.5156,-14.6615 12.7969,-13.5781 C13.0781,-12.4948 13.2188,-11.026 13.2188,-9.17188 C13.2188,-6.99479 12.9948,-5.23438 12.5469,-3.89063 C12.099,-2.54688 11.4271,-1.51042 10.5313,-0.78125 C9.63542,-0.0520833 8.50521,0.3125 7.14063,0.3125 C5.34896,0.3125 3.94271,-0.328125 2.92188,-1.60938 C1.69271,-3.16146 1.07813,-5.68229 1.07813,-9.17188 M3.42188,-9.17188 C3.42188,-6.11979 3.78125,-4.08854 4.5,-3.07813 C5.21875,-2.06771 6.09896,-1.5625 7.14063,-1.5625 C8.19271,-1.5625 9.07813,-2.07031 9.79688,-3.08594 C10.5156,-4.10156 10.875,-6.13021 10.875,-9.17188 C10.875,-12.2448 10.5156,-14.2839 9.79688,-15.2891 C9.07813,-16.2943 8.1875,-16.7969 7.125,-16.7969 C6.07292,-16.7969 5.23438,-16.3542 4.60938,-15.4688 C3.81771,-14.3333 3.42188,-12.2344 3.42188,-9.17188 "/>
</g>

<g fill="#212121" fill-opacity="1" stroke="none" transform="matrix(0.375,0,0,0.375,184.837,372.625)"
font-family="MS Shell Dlg 2" font-size="7.875" font-weight="400" font-style="normal" 
>
<path vector-effect="none" fill-rule="evenodd" d="M1.07813,-9.17188 C1.07813,-11.3802 1.30469,-13.1536 1.75781,-14.4922 C2.21094,-15.8307 2.88281,-16.8646 3.77344,-17.5938 C4.66406,-18.3229 5.78646,-18.6875 7.14063,-18.6875 C8.14063,-18.6875 9.01823,-18.487 9.77344,-18.0859 C10.5286,-17.6849 11.151,-17.1042 11.6406,-16.3438 C12.1302,-15.5833 12.5156,-14.6615 12.7969,-13.5781 C13.0781,-12.4948 13.2188,-11.026 13.2188,-9.17188 C13.2188,-6.99479 12.9948,-5.23438 12.5469,-3.89063 C12.099,-2.54688 11.4271,-1.51042 10.5313,-0.78125 C9.63542,-0.0520833 8.50521,0.3125 7.14063,0.3125 C5.34896,0.3125 3.94271,-0.328125 2.92188,-1.60938 C1.69271,-3.16146 1.07813,-5.68229 1.07813,-9.17188 M3.42188,-9.17188 C3.42188,-6.11979 3.78125,-4.08854 4.5,-3.07813 C5.21875,-2.06771 6.09896,-1.5625 7.14063,-1.5625 C8.19271,-1.5625 9.07813,-2.07031 9.79688,-3.08594 C10.5156,-4.10156 10.875,-6.13021 10.875,-9.17188 C10.875,-12.2448 10.5156,-14.2839 9.79688,-15.2891 C9.07813,-16.2943 8.1875,-16.7969 7.125,-16.7969 C6.07292,-16.7969 5.23438,-16.3542 4.60938,-15.4688 C3.81771,-14.3333 3.42188,-12.2344 3.42188,-9.17188 M16.3594,0 L16.3594,-2.60938 L18.9688,-2.60938 L18.9688,0 L16.3594,0 M22.0781,-4.875 L24.4844,-5.07813 C24.6615,-3.91146 25.0729,-3.03385 25.7188,-2.44531 C26.3646,-1.85677 27.1458,-1.5625 28.0625,-1.5625 C29.1563,-1.5625 30.0859,-1.97656 30.8516,-2.80469 C31.6172,-3.63281 32,-4.73438 32,-6.10938 C32,-7.41146 31.6328,-8.4401 30.8984,-9.19531 C30.1641,-9.95052 29.2031,-10.3281 28.0156,-10.3281 C27.2865,-10.3281 26.625,-10.1589 26.0313,-9.82031 C25.4375,-9.48177 24.9688,-9.04688 24.625,-8.51563 L22.4844,-8.79688 L24.2813,-18.3594 L33.5469,-18.3594 L33.5469,-16.1719 L26.1094,-16.1719 L25.1094,-11.1719 C26.2344,-11.9531 27.4063,-12.3438 28.625,-12.3438 C30.25,-12.3438 31.6224,-11.7813 32.7422,-10.6563 C33.862,-9.53125 34.4219,-8.08333 34.4219,-6.3125 C34.4219,-4.625 33.9323,-3.16667 32.9531,-1.9375 C31.7552,-0.4375 30.125,0.3125 28.0625,0.3125 C26.3646,0.3125 24.9818,-0.161458 23.9141,-1.10938 C22.8464,-2.05729 22.2344,-3.3125 22.0781,-4.875 "/>
</g>

<g fill="#212121" fill-opacity="1" stroke="none" transform="matrix(0.375,0,0,0.375,292.8,372.625)"
font-family="MS Shell Dlg 2" font-size="7.875" font-weight="400" font-style="normal" 
>
<path vector-effect="none" fill-rule="evenodd" d="M9.6875,0 L7.40625,0 L7.40625,-14.5625 C6.85417,-14.0417 6.13021,-13.5182 5.23438,-12.9922 C4.33854,-12.4661 3.53646,-12.0729 2.82813,-11.8125 L2.82813,-14.0156 C4.10938,-14.6198 5.22917,-15.349 6.1875,-16.2031 C7.14583,-17.0573 7.82292,-17.8854 8.21875,-18.6875 L9.6875,-18.6875 L9.6875,0"/>
</g>

<g fill="#212121" fill-opacity="1" stroke="none" transform="matrix(0.375,0,0,0.375,392.888,372.625)"
font-family="MS Shell Dlg 2" font-size="7.875" font-weight="400" font-style="normal" 
>
<path vector-effect="none" fill-rule="evenodd" d="M9.6875,0 L7.40625,0 L7.40625,-14.5625 C6.85417,-14.0417 6.13021,-13.5182 5.23438,-12.9922 C4.33854,-12.4661 3.53646,-12.0729 2.82813,-11.8125 L2.82813,-14.0156 C4.10938,-14.6198 5.22917,-15.349 6.1875,-16.2031 C7.14583,-17.0573 7.82292,-17.8854 8.21875,-18.6875 L9.6875,-18.6875 L9.6875,0 M16.3594,0 L16.3594,-2.60938 L18.9688,-2.60938 L18.9688,0 L16.3594,0 M22.0781,-4.875 L24.4844,-5.07813 C24.6615,-3.91146 25.0729,-3.03385 25.7188,-2.44531 C26.3646,-1.85677 27.1458,-1.5625 28.0625,-1.5625 C29.1563,-1.5625 30.0859,-1.97656 30.8516,-2.80469 C31.6172,-3.63281 32,-4.73438 32,-6.10938 C32,-7.41146 31.6328,-8.4401 30.8984,-9.19531 C30.1641,-9.95052 29.2031,-10.3281 28.0156,-10.3281 C27.2865,-10.3281 26.625,-10.1589 26.0313,-9.82031 C25.4375,-9.48177 24.9688,-9.04688 24.625,-8.51563 L22.4844,-8.79688 L24.2813,-18.3594 L33.5469,-18.3594 L33.5469,-16.1719 L26.1094,-16.1719 L25.1094,-11.1719 C26.2344,-11.9531 27.4063,-12.3438 28.625,-12.3438 C30.25,-12.3438 31.6224,-11.7813 32.7422,-10.6563 C33.862,-9.53125 34.4219,-8.08333 34.4219,-6.3125 C34.4219,-4.625 33.9323,-3.16667 32.9531,-1.9375 C31.7552,-0.4375 30.125,0.3125 28.0625,0.3125 C26.3646,0.3125 24.9818,-0.161458 23.9141,-1.10938 C22.8464,-2.05729 22.2344,-3.3125 22.0781,-4.875 "/>
</g>

<g fill="#212121" fill-opacity="1" stroke="none" transform="matrix(0.375,0,0,0.375,500.85,372.625)"
font-family="MS Shell Dlg 2" font-size="7.875" font-weight="400" font-style="normal" 
>
<path vector-effect="none" fill-rule="evenodd" d="M13.0938,-2.20313 L13.0938,0 L0.78125,0 C0.770833,-0.552083 0.859375,-1.08333 1.04688,-1.59375 C1.36979,-2.42708 1.875,-3.25 2.5625,-4.0625 C3.25,-4.875 4.24479,-5.8125 5.54688,-6.875 C7.56771,-8.54167 8.9349,-9.85938 9.64844,-10.8281 C10.362,-11.7969 10.7188,-12.7135 10.7188,-13.5781 C10.7188,-14.4844 10.3932,-15.2474 9.74219,-15.8672 C9.09115,-16.487 8.25,-16.7969 7.21875,-16.7969 C6.11458,-16.7969 5.23177,-16.4661 4.57031,-15.8047 C3.90885,-15.1432 3.57292,-14.2292 3.5625,-13.0625 L1.21875,-13.3125 C1.375,-15.0625 1.97917,-16.3958 3.03125,-17.3125 C4.08333,-18.2292 5.49479,-18.6875 7.26563,-18.6875 C9.04688,-18.6875 10.4583,-18.1927 11.5,-17.2031 C12.5417,-16.2135 13.0625,-14.9844 13.0625,-13.5156 C13.0625,-12.776 12.9115,-12.0469 12.6094,-11.3281 C12.3073,-10.6094 11.8021,-9.85156 11.0938,-9.05469 C10.3854,-8.25781 9.20833,-7.16667 7.5625,-5.78125 C6.19792,-4.625 5.32031,-3.84115 4.92969,-3.42969 C4.53906,-3.01823 4.21875,-2.60938 3.96875,-2.20313 L13.0938,-2.20313"/>
</g>

<g fill="#212121" fill-opacity="1" stroke="none" transform="matrix(0.375,0,0,0.375,600.938,372.625)"
font-family="MS Shell Dlg 2" font-size="7.875" font-weight="400" font-style="normal" 
>
<path vector-effect="none" fill-rule="evenodd" d="M13.0938,-2.20313 L13.0938,0 L0.78125,0 C0.770833,-0.552083 0.859375,-1.08333 1.04688,-1.59375 C1.36979,-2.42708 1.875,-3.25 2.5625,-4.0625 C3.25,-4.875 4.24479,-5.8125 5.54688,-6.875 C7.56771,-8.54167 8.9349,-9.85938 9.64844,-10.8281 C10.362,-11.7969 10.7188,-12.7135 10.7188,-13.5781 C10.7188,-14.4844 10.3932,-15.2474 9.74219,-15.8672 C9.09115,-16.487 8.25,-16.7969 7.21875,-16.7969 C6.11458,-16.7969 5.23177,-16.4661 4.57031,-15.8047 C3.90885,-15.1432 3.57292,-14.2292 3.5625,-13.0625 L1.21875,-13.3125 C1.375,-15.0625 1.97917,-16.3958 3.03125,-17.3125 C4.08333,-18.2292 5.49479,-18.6875 7.26563,-18.6875 C9.04688,-18.6875 10.4583,-18.1927 11.5,-17.2031 C12.5417,-16.2135 13.0625,-14.9844 13.0625,-13.5156 C13.0625,-12.776 12.9115,-12.0469 12.6094,-11.3281 C12.3073,-10.6094 11.8021,-9.85156 11.0938,-9.05469 C10.3854,-8.25781 9.20833,-7.16667 7.5625,-5.78125 C6.19792,-4.625 5.32031,-3.84115 4.92969,-3.42969 C4.53906,-3.01823 4.21875,-2.60938 3.96875,-2.20313 L13.0938,-2.20313 M16.3594,0 L16.3594,-2.60938 L18.9688,-2.60938 L18.9688,0 L16.3594,0 M22.0781,-4.875 L24.4844,-5.07813 C24.6615,-3.91146 25.0729,-3.03385 25.7188,-2.44531 C26.3646,-1.85677 27.1458,-1.5625 28.0625,-1.5625 C29.1563,-1.5625 30.0859,-1.97656 30.8516,-2.80469 C31.6172,-3.63281 32,-4.73438 32,-6.10938 C32,-7.41146 31.6328,-8.4401 30.8984,-9.19531 C30.1641,-9.95052 29.2031,-10.3281 28.0156,-10.3281 C27.2865,-10.3281 26.625,-10.1589 26.0313,-9.82031 C25.4375,-9.48177 24.9688,-9.04688 24.625,-8.51563 L22.4844,-8.79688 L24.2813,-18.3594 L33.5469,-18.3594 L33.5469,-16.1719 L26.1094,-16.1719 L25.1094,-11.1719 C26.2344,-11.9531 27.4063,-12.3438 28.625,-12.3438 C30.25,-12.3438 31.6224,-11.7813 32.7422,-10.6563 C33.862,-9.53125 34.4219,-8.08333 34.4219,-6.3125 C34.4219,-4.625 33.9323,-3.16667 32.9531,-1.9375 C31.7552,-0.4375 30.125,0.3125 28.0625,0.3125 C26.3646,0.3125 24.9818,-0.161458 23.9141,-1.10938 C22.8464,-2.05729 22.2344,-3.3125 22.0781,-4.875 "/>
</g>

<g fill="#212121" fill-opacity="1" stroke="none" transform="matrix(0.375,0,0,0.375,304.5,386)"
font-family="MS Shell Dlg 2" font-size="7.875" font-weight="400" font-style="normal" 
>
<path vector-effect="none" fill-rule="evenodd" d="M2.29688,0 L2.29688,-20.7656 L17.2969,-20.7656 L17.2969,-18.3125 L5.04688,-18.3125 L5.04688,-11.9531 L16.5313,-11.9531 L16.5313,-9.51563 L5.04688,-9.51563 L5.04688,-2.45313 L17.7813,-2.45313 L17.7813,0 L2.29688,0 M20.9063,0 L20.9063,-15.0313 L23.2031,-15.0313 L23.2031,-12.9063 C24.3073,-14.5521 25.901,-15.375 27.9844,-15.375 C28.8906,-15.375 29.724,-15.2135 30.4844,-14.8906 C31.2448,-14.5677 31.8151,-14.1406 32.1953,-13.6094 C32.5755,-13.0781 32.8385,-12.4479 32.9844,-11.7188 C33.0781,-11.25 33.125,-10.4271 33.125,-9.25 L33.125,0 L30.5781,0 L30.5781,-9.14063 C30.5781,-10.1823 30.4792,-10.9609 30.2813,-11.4766 C30.0833,-11.9922 29.7318,-12.4036 29.2266,-12.7109 C28.7214,-13.0182 28.1302,-13.1719 27.4531,-13.1719 C26.3698,-13.1719 25.4323,-12.8281 24.6406,-12.1406 C23.849,-11.4531 23.4531,-10.1458 23.4531,-8.21875 L23.4531,0 L20.9063,0 M47.2031,-4.84375 L49.8438,-4.51563 C49.4271,-2.97396 48.6563,-1.77865 47.5313,-0.929688 C46.4063,-0.0807292 44.974,0.34375 43.2344,0.34375 C41.026,0.34375 39.2786,-0.333333 37.9922,-1.6875 C36.7057,-3.04167 36.0625,-4.94271 36.0625,-7.39063 C36.0625,-9.92188 36.7135,-11.8854 38.0156,-13.2813 C39.3177,-14.6771 41.0052,-15.375 43.0781,-15.375 C45.099,-15.375 46.7448,-14.6901 48.0156,-13.3203 C49.2865,-11.9505 49.9219,-10.026 49.9219,-7.54688 C49.9219,-7.40104 49.9167,-7.17708 49.9063,-6.875 L38.7031,-6.875 C38.7969,-5.21875 39.263,-3.95052 40.1016,-3.07031 C40.9401,-2.1901 41.9844,-1.75 43.2344,-1.75 C44.1719,-1.75 44.9714,-1.9974 45.6328,-2.49219 C46.2943,-2.98698 46.8177,-3.77083 47.2031,-4.84375 M38.8438,-8.96875 L47.2344,-8.96875 C47.1198,-10.2292 46.7969,-11.1771 46.2656,-11.8125 C45.4531,-12.7917 44.401,-13.2813 43.1094,-13.2813 C41.9427,-13.2813 40.9609,-12.8906 40.1641,-12.1094 C39.3672,-11.3281 38.9271,-10.2813 38.8438,-8.96875 M52.8906,0 L52.8906,-15.0313 L55.1719,-15.0313 L55.1719,-12.7656 C55.7656,-13.8281 56.3099,-14.5286 56.8047,-14.8672 C57.2995,-15.2057 57.8438,-15.375 58.4375,-15.375 C59.2917,-15.375 60.1615,-15.1042 61.0469,-14.5625 L60.1719,-12.1875 C59.5469,-12.5625 58.9271,-12.75 58.3125,-12.75 C57.75,-12.75 57.2474,-12.5807 56.8047,-12.2422 C56.362,-11.9036 56.0469,-11.4375 55.8594,-10.8438 C55.5781,-9.9375 55.4375,-8.94792 55.4375,-7.875 L55.4375,0 L52.8906,0 M62.4375,1.25 L64.9219,1.60938 C65.026,2.38021 65.3125,2.9375 65.7813,3.28125 C66.4167,3.76042 67.2813,4 68.375,4 C69.5521,4 70.4635,3.76302 71.1094,3.28906 C71.7552,2.8151 72.1875,2.15104 72.4063,1.29688 C72.5417,0.786458 72.6042,-0.302083 72.5938,-1.96875 C71.4792,-0.65625 70.0938,0 68.4375,0 C66.3646,0 64.763,-0.744792 63.6328,-2.23438 C62.5026,-3.72396 61.9375,-5.51563 61.9375,-7.60938 C61.9375,-9.03646 62.1979,-10.3568 62.7188,-11.5703 C63.2396,-12.7839 63.9922,-13.7214 64.9766,-14.3828 C65.9609,-15.0443 67.1198,-15.375 68.4531,-15.375 C70.224,-15.375 71.6875,-14.6563 72.8438,-13.2188 L72.8438,-15.0313 L75.1875,-15.0313 L75.1875,-2.04688 C75.1875,0.296875 74.9505,1.95833 74.4766,2.9375 C74.0026,3.91667 73.2474,4.6901 72.2109,5.25781 C71.1745,5.82552 69.901,6.10938 68.3906,6.10938 C66.599,6.10938 65.151,5.70573 64.0469,4.89844 C62.9427,4.09115 62.4063,2.875 62.4375,1.25 M64.5469,-7.78125 C64.5469,-5.8125 64.9401,-4.375 65.7266,-3.46875 C66.513,-2.5625 67.4948,-2.10938 68.6719,-2.10938 C69.849,-2.10938 70.8333,-2.5599 71.625,-3.46094 C72.4167,-4.36198 72.8125,-5.77604 72.8125,-7.70313 C72.8125,-9.54688 72.4036,-10.9349 71.5859,-11.8672 C70.7682,-12.7995 69.7813,-13.2656 68.625,-13.2656 C67.5,-13.2656 66.5391,-12.8047 65.7422,-11.8828 C64.9453,-10.9609 64.5469,-9.59375 64.5469,-7.78125 M78.7969,5.79688 L78.5156,3.40625 C79.0677,3.55208 79.5521,3.625 79.9688,3.625 C80.5417,3.625 80.9974,3.53125 81.3359,3.34375 C81.6745,3.15625 81.9531,2.89063 82.1719,2.54688 C82.3281,2.29688 82.5885,1.66667 82.9531,0.65625 C82.9948,0.510417 83.0677,0.302083 83.1719,0.03125 L77.4688,-15.0313 L80.2188,-15.0313 L83.3438,-6.32813 C83.75,-5.22396 84.1146,-4.0625 84.4375,-2.84375 C84.7292,-4.02083 85.0781,-5.16146 85.4844,-6.26563 L88.7031,-15.0313 L91.25,-15.0313 L85.5313,0.25 C84.9167,1.90625 84.4375,3.04688 84.0938,3.67188 C83.6458,4.50521 83.1276,5.11979 82.5391,5.51563 C81.9505,5.91146 81.25,6.10938 80.4375,6.10938 C79.9479,6.10938 79.401,6.00521 78.7969,5.79688 M106.781,6.10938 C105.375,4.32813 104.185,2.2474 103.211,-0.132813 C102.237,-2.51302 101.75,-4.97396 101.75,-7.51563 C101.75,-9.76563 102.115,-11.9167 102.844,-13.9688 C103.698,-16.3646 105.01,-18.7448 106.781,-21.1094 L108.609,-21.1094 C107.464,-19.151 106.708,-17.75 106.344,-16.9063 C105.771,-15.6042 105.318,-14.2448 104.984,-12.8281 C104.578,-11.0677 104.375,-9.29167 104.375,-7.5 C104.375,-2.95833 105.786,1.57813 108.609,6.10938 L106.781,6.10938 M121.766,0 L121.766,-2.20313 C120.599,-0.505208 119.01,0.34375 117,0.34375 C116.115,0.34375 115.286,0.171875 114.516,-0.171875 C113.745,-0.515625 113.172,-0.942708 112.797,-1.45313 C112.422,-1.96354 112.161,-2.59375 112.016,-3.34375 C111.911,-3.84375 111.859,-4.63542 111.859,-5.71875 L111.859,-15.0313 L114.406,-15.0313 L114.406,-6.70313 C114.406,-5.36979 114.458,-4.46875 114.563,-4 C114.719,-3.33333 115.057,-2.8099 115.578,-2.42969 C116.099,-2.04948 116.74,-1.85938 117.5,-1.85938 C118.271,-1.85938 118.99,-2.05469 119.656,-2.44531 C120.323,-2.83594 120.797,-3.36979 121.078,-4.04688 C121.359,-4.72396 121.5,-5.70313 121.5,-6.98438 L121.5,-15.0313 L124.047,-15.0313 L124.047,0 L121.766,0 M127.906,0 L127.906,-15.0313 L130.203,-15.0313 L130.203,-12.9063 C131.307,-14.5521 132.901,-15.375 134.984,-15.375 C135.891,-15.375 136.724,-15.2135 137.484,-14.8906 C138.245,-14.5677 138.815,-14.1406 139.195,-13.6094 C139.576,-13.0781 139.839,-12.4479 139.984,-11.7188 C140.078,-11.25 140.125,-10.4271 140.125,-9.25 L140.125,0 L137.578,0 L137.578,-9.14063 C137.578,-10.1823 137.479,-10.9609 137.281,-11.4766 C137.083,-11.9922 136.732,-12.4036 136.227,-12.7109 C135.721,-13.0182 135.13,-13.1719 134.453,-13.1719 C133.37,-13.1719 132.432,-12.8281 131.641,-12.1406 C130.849,-11.4531 130.453,-10.1458 130.453,-8.21875 L130.453,0 L127.906,0 M143.922,-17.8281 L143.922,-20.7656 L146.469,-20.7656 L146.469,-17.8281 L143.922,-17.8281 M143.922,0 L143.922,-15.0313 L146.469,-15.0313 L146.469,0 L143.922,0 M155.484,-2.28125 L155.844,-0.03125 C155.125,0.125 154.484,0.203125 153.922,0.203125 C152.995,0.203125 152.276,0.0546875 151.766,-0.242188 C151.255,-0.539063 150.896,-0.924479 150.688,-1.39844 C150.479,-1.8724 150.375,-2.875 150.375,-4.40625 L150.375,-13.0625 L148.516,-13.0625 L148.516,-15.0313 L150.375,-15.0313 L150.375,-18.7656 L152.906,-20.2969 L152.906,-15.0313 L155.484,-15.0313 L155.484,-13.0625 L152.906,-13.0625 L152.906,-4.26563 C152.906,-3.53646 152.953,-3.06771 153.047,-2.85938 C153.141,-2.65104 153.289,-2.48698 153.492,-2.36719 C153.695,-2.2474 153.984,-2.1875 154.359,-2.1875 C154.641,-2.1875 155.016,-2.21875 155.484,-2.28125 M156.891,-4.48438 L159.406,-4.89063 C159.552,-3.88021 159.948,-3.10417 160.594,-2.5625 C161.24,-2.02083 162.146,-1.75 163.313,-1.75 C164.479,-1.75 165.346,-1.98958 165.914,-2.46875 C166.482,-2.94792 166.766,-3.51042 166.766,-4.15625 C166.766,-4.72917 166.516,-5.18229 166.016,-5.51563 C165.661,-5.73438 164.792,-6.02083 163.406,-6.375 C161.542,-6.84375 160.247,-7.25 159.523,-7.59375 C158.799,-7.9375 158.25,-8.41406 157.875,-9.02344 C157.5,-9.63281 157.313,-10.3073 157.313,-11.0469 C157.313,-11.7135 157.466,-12.3333 157.773,-12.9063 C158.081,-13.4792 158.5,-13.9531 159.031,-14.3281 C159.427,-14.6198 159.966,-14.8672 160.648,-15.0703 C161.331,-15.2734 162.068,-15.375 162.859,-15.375 C164.036,-15.375 165.07,-15.2057 165.961,-14.8672 C166.852,-14.5286 167.51,-14.0677 167.938,-13.4844 C168.365,-12.901 168.656,-12.125 168.813,-11.1563 L166.328,-10.8125 C166.214,-11.5938 165.885,-12.2005 165.344,-12.6328 C164.802,-13.0651 164.031,-13.2813 163.031,-13.2813 C161.865,-13.2813 161.031,-13.0885 160.531,-12.7031 C160.031,-12.3177 159.781,-11.8646 159.781,-11.3438 C159.781,-11.0104 159.885,-10.7135 160.094,-10.4531 C160.302,-10.1823 160.625,-9.95313 161.063,-9.76563 C161.323,-9.67188 162.078,-9.45833 163.328,-9.125 C165.13,-8.63542 166.385,-8.23958 167.094,-7.9375 C167.802,-7.63542 168.359,-7.1901 168.766,-6.60156 C169.172,-6.01302 169.375,-5.28646 169.375,-4.42188 C169.375,-3.56771 169.128,-2.76563 168.633,-2.01563 C168.138,-1.26563 167.424,-0.684896 166.492,-0.273438 C165.56,0.138021 164.505,0.34375 163.328,0.34375 C161.37,0.34375 159.878,-0.0625 158.852,-0.875 C157.826,-1.6875 157.172,-2.89063 156.891,-4.48438 M179.969,-7.51563 C179.969,-10.3073 180.74,-12.3698 182.281,-13.7031 C183.573,-14.8177 185.151,-15.375 187.016,-15.375 C189.078,-15.375 190.766,-14.6979 192.078,-13.3438 C193.391,-11.9896 194.047,-10.1198 194.047,-7.73438 C194.047,-5.79688 193.758,-4.27344 193.18,-3.16406 C192.602,-2.05469 191.758,-1.19271 190.648,-0.578125 C189.539,0.0364583 188.328,0.34375 187.016,0.34375 C184.911,0.34375 183.211,-0.330729 181.914,-1.67969 C180.617,-3.02865 179.969,-4.97396 179.969,-7.51563 M182.578,-7.51563 C182.578,-5.58854 183,-4.14583 183.844,-3.1875 C184.688,-2.22917 185.745,-1.75 187.016,-1.75 C188.276,-1.75 189.328,-2.23177 190.172,-3.19531 C191.016,-4.15885 191.438,-5.63021 191.438,-7.60938 C191.438,-9.46354 191.013,-10.8698 190.164,-11.8281 C189.315,-12.7865 188.266,-13.2656 187.016,-13.2656 C185.745,-13.2656 184.688,-12.7891 183.844,-11.8359 C183,-10.8828 182.578,-9.44271 182.578,-7.51563 M197.516,0 L197.516,-13.0625 L195.266,-13.0625 L195.266,-15.0313 L197.516,-15.0313 L197.516,-16.6406 C197.516,-17.651 197.609,-18.401 197.797,-18.8906 C198.036,-19.5469 198.466,-20.0807 199.086,-20.4922 C199.706,-20.9036 200.573,-21.1094 201.688,-21.1094 C202.406,-21.1094 203.198,-21.026 204.063,-20.8594 L203.688,-18.6406 C203.156,-18.7344 202.651,-18.7813 202.172,-18.7813 C201.401,-18.7813 200.857,-18.6146 200.539,-18.2813 C200.221,-17.9479 200.063,-17.3281 200.063,-16.4219 L200.063,-15.0313 L202.984,-15.0313 L202.984,-13.0625 L200.063,-13.0625 L200.063,0 L197.516,0 M218.484,-2.28125 L218.844,-0.03125 C218.125,0.125 217.484,0.203125 216.922,0.203125 C215.995,0.203125 215.276,0.0546875 214.766,-0.242188 C214.255,-0.539063 213.896,-0.924479 213.688,-1.39844 C213.479,-1.8724 213.375,-2.875 213.375,-4.40625 L213.375,-13.0625 L211.516,-13.0625 L211.516,-15.0313 L213.375,-15.0313 L213.375,-18.7656 L215.906,-20.2969 L215.906,-15.0313 L218.484,-15.0313 L218.484,-13.0625 L215.906,-13.0625 L215.906,-4.26563 C215.906,-3.53646 215.953,-3.06771 216.047,-2.85938 C216.141,-2.65104 216.289,-2.48698 216.492,-2.36719 C216.695,-2.2474 216.984,-2.1875 217.359,-2.1875 C217.641,-2.1875 218.016,-2.21875 218.484,-2.28125 M222.578,6.10938 L220.75,6.10938 C223.573,1.57813 224.984,-2.95833 224.984,-7.5 C224.984,-9.28125 224.781,-11.0417 224.375,-12.7813 C224.063,-14.1979 223.615,-15.5573 223.031,-16.8594 C222.667,-17.7135 221.906,-19.1302 220.75,-21.1094 L222.578,-21.1094 C224.359,-18.7448 225.672,-16.3646 226.516,-13.9688 C227.245,-11.9167 227.609,-9.76563 227.609,-7.51563 C227.609,-4.97396 227.12,-2.51302 226.141,-0.132813 C225.161,2.2474 223.974,4.32813 222.578,6.10938 "/>
</g>

<g fill="#212121" fill-opacity="1" stroke="#212121" stroke-opacity="1" stroke-width="1.33333" stroke-linecap="square" stroke-linejoin="round" transform="matrix(0.375,0,0,0.375,0,0)"
font-family="MS Shell Dlg 2" font-size="7.875" font-weight="400" font-style="normal" 
>
<polyline fill="none" vector-effect="none" points="233,959 233,81 " />
<polyline fill="none" vector-effect="none" points="233,959 246.87,959 " />
<polyline fill="none" vector-effect="none" points="233,833.571 246.87,833.571 " />
<polyline fill="none" vector-effect="none" points="233,708.143 246.87,708.143 " />
<polyline fill="none" vector-effect="none" points="233,582.714 246.87,582.714 " />
<polyline fill="none" vector-effect="none" points="233,457.286 246.87,457.286 " />
<polyline fill="none" vector-effect="none" points="233,331.857 246.87,331.857 " />
<polyline fill="none" vector-effect="none" points="233,206.429 246.87,206.429 " />
<polyline fill="none" vector-effect="none" points="233,81 246.87,81 " />
</g>

<g fill="#212121" fill-opacity="1" stroke="none" transform="matrix(0.375,0,0,0.375,74.75,363)"
font-family="MS Shell Dlg 2" font-size="7.875" font-weight="400" font-style="normal" 
>
<path vector-effect="none" fill-rule="evenodd" d="M0.828125,-5.59375 L0.828125,-7.89063 L7.84375,-7.89063 L7.84375,-5.59375 L0.828125,-5.59375 M21.9375,-14.0469 L19.6719,-13.875 C19.4635,-14.7708 19.1719,-15.4219 18.7969,-15.8281 C18.1823,-16.4844 17.4219,-16.8125 16.5156,-16.8125 C15.7865,-16.8125 15.1458,-16.6094 14.5938,-16.2031 C13.875,-15.6719 13.3099,-14.9036 12.8984,-13.8984 C12.487,-12.8932 12.2708,-11.4583 12.25,-9.59375 C12.8021,-10.4375 13.4766,-11.0625 14.2734,-11.4688 C15.0703,-11.875 15.901,-12.0781 16.7656,-12.0781 C18.2969,-12.0781 19.5964,-11.5156 20.6641,-10.3906 C21.7318,-9.26563 22.2656,-7.81771 22.2656,-6.04688 C22.2656,-4.88021 22.013,-3.79427 21.5078,-2.78906 C21.0026,-1.78385 20.3099,-1.01563 19.4297,-0.484375 C18.5495,0.046875 17.5521,0.3125 16.4375,0.3125 C14.5313,0.3125 12.9792,-0.388021 11.7813,-1.78906 C10.5833,-3.1901 9.98438,-5.49479 9.98438,-8.70313 C9.98438,-12.3073 10.6458,-14.9271 11.9688,-16.5625 C13.125,-17.9792 14.6875,-18.6875 16.6563,-18.6875 C18.125,-18.6875 19.3255,-18.276 20.2578,-17.4531 C21.1901,-16.6302 21.75,-15.4948 21.9375,-14.0469 M12.6094,-6.03125 C12.6094,-5.23958 12.776,-4.48438 13.1094,-3.76563 C13.4427,-3.04688 13.9089,-2.5 14.5078,-2.125 C15.1068,-1.75 15.7396,-1.5625 16.4063,-1.5625 C17.3646,-1.5625 18.1927,-1.95052 18.8906,-2.72656 C19.5885,-3.5026 19.9375,-4.5625 19.9375,-5.90625 C19.9375,-7.1875 19.5938,-8.20052 18.9063,-8.94531 C18.2188,-9.6901 17.3542,-10.0625 16.3125,-10.0625 C15.2813,-10.0625 14.4063,-9.6901 13.6875,-8.94531 C12.9688,-8.20052 12.6094,-7.22917 12.6094,-6.03125 "/>
</g>

<g fill="#212121" fill-opacity="1" stroke="none" transform="matrix(0.375,0,0,0.375,74.75,315.964)"
font-family="MS Shell Dlg 2" font-size="7.875" font-weight="400" font-style="normal" 
>
<path vector-effect="none" fill-rule="evenodd" d="M0.828125,-5.59375 L0.828125,-7.89063 L7.84375,-7.89063 L7.84375,-5.59375 L0.828125,-5.59375 M17.4063,0 L17.4063,-4.45313 L9.32813,-4.45313 L9.32813,-6.54688 L17.8281,-18.6094 L19.6875,-18.6094 L19.6875,-6.54688 L22.2031,-6.54688 L22.2031,-4.45313 L19.6875,-4.45313 L19.6875,0 L17.4063,0 M17.4063,-6.54688 L17.4063,-14.9375 L11.5781,-6.54688 L17.4063,-6.54688"/>
</g>

<g fill="#212121" fill-opacity="1" stroke="none" transform="matrix(0.375,0,0,0.375,74.75,268.929)"
font-family="MS Shell Dlg 2" font-size="7.875" font-weight="400" font-style="normal" 
>
<path vector-effect="none" fill-rule="evenodd" d="M0.828125,-5.59375 L0.828125,-7.89063 L7.84375,-7.89063 L7.84375,-5.59375 L0.828125,-5.59375 M22.0938,-2.20313 L22.0938,0 L9.78125,0 C9.77083,-0.552083 9.85938,-1.08333 10.0469,-1.59375 C10.3698,-2.42708 10.875,-3.25 11.5625,-4.0625 C12.25,-4.875 13.2448,-5.8125 14.5469,-6.875 C16.5677,-8.54167 17.9349,-9.85938 18.6484,-10.8281 C19.362,-11.7969 19.7188,-12.7135 19.7188,-13.5781 C19.7188,-14.4844 19.3932,-15.2474 18.7422,-15.8672 C18.0911,-16.487 17.25,-16.7969 16.2188,-16.7969 C15.1146,-16.7969 14.2318,-16.4661 13.5703,-15.8047 C12.9089,-15.1432 12.5729,-14.2292 12.5625,-13.0625 L10.2188,-13.3125 C10.375,-15.0625 10.9792,-16.3958 12.0313,-17.3125 C13.0833,-18.2292 14.4948,-18.6875 16.2656,-18.6875 C18.0469,-18.6875 19.4583,-18.1927 20.5,-17.2031 C21.5417,-16.2135 22.0625,-14.9844 22.0625,-13.5156 C22.0625,-12.776 21.9115,-12.0469 21.6094,-11.3281 C21.3073,-10.6094 20.8021,-9.85156 20.0938,-9.05469 C19.3854,-8.25781 18.2083,-7.16667 16.5625,-5.78125 C15.1979,-4.625 14.3203,-3.84115 13.9297,-3.42969 C13.5391,-3.01823 13.2188,-2.60938 12.9688,-2.20313 L22.0938,-2.20313"/>
</g>

<g fill="#212121" fill-opacity="1" stroke="none" transform="matrix(0.375,0,0,0.375,78.125,221.893)"
font-family="MS Shell Dlg 2" font-size="7.875" font-weight="400" font-style="normal" 
>
<path vector-effect="none" fill-rule="evenodd" d="M1.07813,-9.17188 C1.07813,-11.3802 1.30469,-13.1536 1.75781,-14.4922 C2.21094,-15.8307 2.88281,-16.8646 3.77344,-17.5938 C4.66406,-18.3229 5.78646,-18.6875 7.14063,-18.6875 C8.14063,-18.6875 9.01823,-18.487 9.77344,-18.0859 C10.5286,-17.6849 11.151,-17.1042 11.6406,-16.3438 C12.1302,-15.5833 12.5156,-14.6615 12.7969,-13.5781 C13.0781,-12.4948 13.2188,-11.026 13.2188,-9.17188 C13.2188,-6.99479 12.9948,-5.23438 12.5469,-3.89063 C12.099,-2.54688 11.4271,-1.51042 10.5313,-0.78125 C9.63542,-0.0520833 8.50521,0.3125 7.14063,0.3125 C5.34896,0.3125 3.94271,-0.328125 2.92188,-1.60938 C1.69271,-3.16146 1.07813,-5.68229 1.07813,-9.17188 M3.42188,-9.17188 C3.42188,-6.11979 3.78125,-4.08854 4.5,-3.07813 C5.21875,-2.06771 6.09896,-1.5625 7.14063,-1.5625 C8.19271,-1.5625 9.07813,-2.07031 9.79688,-3.08594 C10.5156,-4.10156 10.875,-6.13021 10.875,-9.17188 C10.875,-12.2448 10.5156,-14.2839 9.79688,-15.2891 C9.07813,-16.2943 8.1875,-16.7969 7.125,-16.7969 C6.07292,-16.7969 5.23438,-16.3542 4.60938,-15.4688 C3.81771,-14.3333 3.42188,-12.2344 3.42188,-9.17188 "/>
</g>

<g fill="#212121" fill-opacity="1" stroke="none" transform="matrix(0.375,0,0,0.375,78.125,174.857)"
font-family="MS Shell Dlg 2" font-size="7.875" font-weight="400" font-style="normal" 
>
<path vector-effect="none" fill-rule="evenodd" d="M13.0938,-2.20313 L13.0938,0 L0.78125,0 C0.770833,-0.552083 0.859375,-1.08333 1.04688,-1.59375 C1.36979,-2.42708 1.875,-3.25 2.5625,-4.0625 C3.25,-4.875 4.24479,-5.8125 5.54688,-6.875 C7.56771,-8.54167 8.9349,-9.85938 9.64844,-10.8281 C10.362,-11.7969 10.7188,-12.7135 10.7188,-13.5781 C10.7188,-14.4844 10.3932,-15.2474 9.74219,-15.8672 C9.09115,-16.487 8.25,-16.7969 7.21875,-16.7969 C6.11458,-16.7969 5.23177,-16.4661 4.57031,-15.8047 C3.90885,-15.1432 3.57292,-14.2292 3.5625,-13.0625 L1.21875,-13.3125 C1.375,-15.0625 1.97917,-16.3958 3.03125,-17.3125 C4.08333,-18.2292 5.49479,-18.6875 7.26563,-18.6875 C9.04688,-18.6875 10.4583,-18.1927 11.5,-17.2031 C12.5417,-16.2135 13.0625,-14.9844 13.0625,-13.5156 C13.0625,-12.776 12.9115,-12.0469 12.6094,-11.3281 C12.3073,-10.6094 11.8021,-9.85156 11.0938,-9.05469 C10.3854,-8.25781 9.20833,-7.16667 7.5625,-5.78125 C6.19792,-4.625 5.32031,-3.84115 4.92969,-3.42969 C4.53906,-3.01823 4.21875,-2.60938 3.96875,-2.20313 L13.0938,-2.20313"/>
</g>

<g fill="#212121" fill-opacity="1" stroke="none" transform="matrix(0.375,0,0,0.375,78.125,127.821)"
font-family="MS Shell Dlg 2" font-size="7.875" font-weight="400" font-style="normal" 
>
<path vector-effect="none" fill-rule="evenodd" d="M8.40625,0 L8.40625,-4.45313 L0.328125,-4.45313 L0.328125,-6.54688 L8.82813,-18.6094 L10.6875,-18.6094 L10.6875,-6.54688 L13.2031,-6.54688 L13.2031,-4.45313 L10.6875,-4.45313 L10.6875,0 L8.40625,0 M8.40625,-6.54688 L8.40625,-14.9375 L2.57813,-6.54688 L8.40625,-6.54688"/>
</g>

<g fill="#212121" fill-opacity="1" stroke="none" transform="matrix(0.375,0,0,0.375,78.125,80.7857)"
font-family="MS Shell Dlg 2" font-size="7.875" font-weight="400" font-style="normal" 
>
<path vector-effect="none" fill-rule="evenodd" d="M12.9375,-14.0469 L10.6719,-13.875 C10.4635,-14.7708 10.1719,-15.4219 9.79688,-15.8281 C9.18229,-16.4844 8.42188,-16.8125 7.51563,-16.8125 C6.78646,-16.8125 6.14583,-16.6094 5.59375,-16.2031 C4.875,-15.6719 4.3099,-14.9036 3.89844,-13.8984 C3.48698,-12.8932 3.27083,-11.4583 3.25,-9.59375 C3.80208,-10.4375 4.47656,-11.0625 5.27344,-11.4688 C6.07031,-11.875 6.90104,-12.0781 7.76563,-12.0781 C9.29688,-12.0781 10.5964,-11.5156 11.6641,-10.3906 C12.7318,-9.26563 13.2656,-7.81771 13.2656,-6.04688 C13.2656,-4.88021 13.013,-3.79427 12.5078,-2.78906 C12.0026,-1.78385 11.3099,-1.01563 10.4297,-0.484375 C9.54948,0.046875 8.55208,0.3125 7.4375,0.3125 C5.53125,0.3125 3.97917,-0.388021 2.78125,-1.78906 C1.58333,-3.1901 0.984375,-5.49479 0.984375,-8.70313 C0.984375,-12.3073 1.64583,-14.9271 2.96875,-16.5625 C4.125,-17.9792 5.6875,-18.6875 7.65625,-18.6875 C9.125,-18.6875 10.3255,-18.276 11.2578,-17.4531 C12.1901,-16.6302 12.75,-15.4948 12.9375,-14.0469 M3.60938,-6.03125 C3.60938,-5.23958 3.77604,-4.48438 4.10938,-3.76563 C4.44271,-3.04688 4.90885,-2.5 5.50781,-2.125 C6.10677,-1.75 6.73958,-1.5625 7.40625,-1.5625 C8.36458,-1.5625 9.19271,-1.95052 9.89063,-2.72656 C10.5885,-3.5026 10.9375,-4.5625 10.9375,-5.90625 C10.9375,-7.1875 10.5938,-8.20052 9.90625,-8.94531 C9.21875,-9.6901 8.35417,-10.0625 7.3125,-10.0625 C6.28125,-10.0625 5.40625,-9.6901 4.6875,-8.94531 C3.96875,-8.20052 3.60938,-7.22917 3.60938,-6.03125 "/>
</g>

<g fill="#212121" fill-opacity="1" stroke="none" transform="matrix(0.375,0,0,0.375,78.125,33.75)"
font-family="MS Shell Dlg 2" font-size="7.875" font-weight="400" font-style="normal" 
>
<path vector-effect="none" fill-rule="evenodd" d="M4.59375,-10.0938 C3.64583,-10.4375 2.94271,-10.9323 2.48438,-11.5781 C2.02604,-12.224 1.79688,-12.9948 1.79688,-13.8906 C1.79688,-15.2448 2.28385,-16.3828 3.25781,-17.3047 C4.23177,-18.2266 5.52604,-18.6875 7.14063,-18.6875 C8.76563,-18.6875 10.0755,-18.2161 11.0703,-17.2734 C12.0651,-16.3307 12.5625,-15.1823 12.5625,-13.8281 C12.5625,-12.9635 12.3359,-12.2109 11.8828,-11.5703 C11.4297,-10.9297 10.7396,-10.4375 9.8125,-10.0938 C10.9583,-9.71875 11.8281,-9.11719 12.4219,-8.28906 C13.0156,-7.46094 13.3125,-6.46875 13.3125,-5.3125 C13.3125,-3.72917 12.75,-2.39583 11.625,-1.3125 C10.5,-0.229167 9.02083,0.3125 7.1875,0.3125 C5.35417,0.3125 3.8724,-0.231771 2.74219,-1.32031 C1.61198,-2.40885 1.04688,-3.76563 1.04688,-5.39063 C1.04688,-6.59896 1.35417,-7.61198 1.96875,-8.42969 C2.58333,-9.2474 3.45833,-9.80208 4.59375,-10.0938 M4.14063,-13.9688 C4.14063,-13.0833 4.42448,-12.362 4.99219,-11.8047 C5.5599,-11.2474 6.29688,-10.9688 7.20313,-10.9688 C8.07813,-10.9688 8.79688,-11.2448 9.35938,-11.7969 C9.92188,-12.349 10.2031,-13.0313 10.2031,-13.8438 C10.2031,-14.6771 9.91406,-15.3802 9.33594,-15.9531 C8.75781,-16.526 8.03646,-16.8125 7.17188,-16.8125 C6.29688,-16.8125 5.57292,-16.5339 5,-15.9766 C4.42708,-15.4193 4.14063,-14.75 4.14063,-13.9688 M3.40625,-5.375 C3.40625,-4.71875 3.5599,-4.08594 3.86719,-3.47656 C4.17448,-2.86719 4.63281,-2.39583 5.24219,-2.0625 C5.85156,-1.72917 6.51042,-1.5625 7.21875,-1.5625 C8.30208,-1.5625 9.20052,-1.91406 9.91406,-2.61719 C10.6276,-3.32031 10.9844,-4.21354 10.9844,-5.29688 C10.9844,-6.39063 10.6172,-7.29948 9.88281,-8.02344 C9.14844,-8.7474 8.23438,-9.10938 7.14063,-9.10938 C6.05729,-9.10938 5.16406,-8.7526 4.46094,-8.03906 C3.75781,-7.32552 3.40625,-6.4375 3.40625,-5.375 "/>
</g>

<g fill="#212121" fill-opacity="1" stroke="none" transform="matrix(0.375,0,0,0.375,86.25,28.125)"
font-family="MS Shell Dlg 2" font-size="7.875" font-weight="400" font-style="normal" 
>
<path vector-effect="none" fill-rule="evenodd" d="M3.82813,-0.75 C3.82813,-0.885417 3.86979,-1.01042 3.95313,-1.125 L9.35938,-6.5 L3.95313,-11.9063 C3.86979,-11.9896 3.82813,-12.1042 3.82813,-12.25 C3.82813,-12.375 3.8776,-12.4922 3.97656,-12.6016 C4.07552,-12.7109 4.19792,-12.7656 4.34375,-12.7656 C4.45833,-12.7656 4.58854,-12.7135 4.73438,-12.6094 L10.125,-7.21875 L15.4688,-12.6094 C15.6146,-12.7135 15.7448,-12.7656 15.8594,-12.7656 C16.0052,-12.7656 16.1276,-12.7161 16.2266,-12.6172 C16.3255,-12.5182 16.375,-12.3958 16.375,-12.25 C16.375,-12.1042 16.3333,-11.9896 16.25,-11.9063 L10.8438,-6.5 L16.25,-1.125 C16.3333,-1.01042 16.375,-0.885417 16.375,-0.75 C16.375,-0.604167 16.3255,-0.481771 16.2266,-0.382813 C16.1276,-0.283854 16.0052,-0.234375 15.8594,-0.234375 C15.7344,-0.234375 15.6042,-0.296875 15.4688,-0.421875 L10.125,-5.78125 L4.73438,-0.421875 C4.60938,-0.296875 4.47917,-0.234375 4.34375,-0.234375 C4.19792,-0.234375 4.07552,-0.289063 3.97656,-0.398438 C3.8776,-0.507813 3.82813,-0.625 3.82813,-0.75 "/>
</g>

<g fill="#212121" fill-opacity="1" stroke="none" transform="matrix(0.375,0,0,0.375,93.75,28.125)"
font-family="MS Shell Dlg 2" font-size="7.875" font-weight="400" font-style="normal" 
>
<path vector-effect="none" fill-rule="evenodd" d="M9.6875,0 L7.40625,0 L7.40625,-14.5625 C6.85417,-14.0417 6.13021,-13.5182 5.23438,-12.9922 C4.33854,-12.4661 3.53646,-12.0729 2.82813,-11.8125 L2.82813,-14.0156 C4.10938,-14.6198 5.22917,-15.349 6.1875,-16.2031 C7.14583,-17.0573 7.82292,-17.8854 8.21875,-18.6875 L9.6875,-18.6875 L9.6875,0 M15.0781,-9.17188 C15.0781,-11.3802 15.3047,-13.1536 15.7578,-14.4922 C16.2109,-15.8307 16.8828,-16.8646 17.7734,-17.5938 C18.6641,-18.3229 19.7865,-18.6875 21.1406,-18.6875 C22.1406,-18.6875 23.0182,-18.487 23.7734,-18.0859 C24.5286,-17.6849 25.151,-17.1042 25.6406,-16.3438 C26.1302,-15.5833 26.5156,-14.6615 26.7969,-13.5781 C27.0781,-12.4948 27.2188,-11.026 27.2188,-9.17188 C27.2188,-6.99479 26.9948,-5.23438 26.5469,-3.89063 C26.099,-2.54688 25.4271,-1.51042 24.5313,-0.78125 C23.6354,-0.0520833 22.5052,0.3125 21.1406,0.3125 C19.349,0.3125 17.9427,-0.328125 16.9219,-1.60938 C15.6927,-3.16146 15.0781,-5.68229 15.0781,-9.17188 M17.4219,-9.17188 C17.4219,-6.11979 17.7813,-4.08854 18.5,-3.07813 C19.2188,-2.06771 20.099,-1.5625 21.1406,-1.5625 C22.1927,-1.5625 23.0781,-2.07031 23.7969,-3.08594 C24.5156,-4.10156 24.875,-6.13021 24.875,-9.17188 C24.875,-12.2448 24.5156,-14.2839 23.7969,-15.2891 C23.0781,-16.2943 22.1875,-16.7969 21.125,-16.7969 C20.0729,-16.7969 19.2344,-16.3542 18.6094,-15.4688 C17.8177,-14.3333 17.4219,-12.2344 17.4219,-9.17188 "/>
</g>

<g fill="#212121" fill-opacity="1" stroke="none" transform="matrix(0.375,0,0,0.375,104.25,23.25)"
font-family="MS Shell Dlg 2" font-size="7.875" font-weight="400" font-style="normal" 
>
<path vector-effect="none" fill-rule="evenodd" d="M0.671875,-4.51563 L0.671875,-6.375 L6.34375,-6.375 L6.34375,-4.51563 L0.671875,-4.51563 M14.8281,0 L12.9844,0 L12.9844,-11.7656 C12.5365,-11.3385 11.9505,-10.9141 11.2266,-10.4922 C10.5026,-10.0703 9.85417,-9.75 9.28125,-9.53125 L9.28125,-11.3281 C10.3125,-11.8073 11.2161,-12.3932 11.9922,-13.0859 C12.7682,-13.7786 13.3177,-14.4479 13.6406,-15.0938 L14.8281,-15.0938 L14.8281,0 M29.4531,-11.3438 L27.6094,-11.2031 C27.4531,-11.9323 27.224,-12.4583 26.9219,-12.7813 C26.4219,-13.3125 25.8073,-13.5781 25.0781,-13.5781 C24.4844,-13.5781 23.9635,-13.4115 23.5156,-13.0781 C22.9427,-12.6615 22.487,-12.0469 22.1484,-11.2344 C21.8099,-10.4219 21.6354,-9.26042 21.625,-7.75 C22.0729,-8.42708 22.6172,-8.92969 23.2578,-9.25781 C23.8984,-9.58594 24.5729,-9.75 25.2813,-9.75 C26.5104,-9.75 27.5573,-9.29688 28.4219,-8.39063 C29.2865,-7.48438 29.7188,-6.3125 29.7188,-4.875 C29.7188,-3.9375 29.5156,-3.0625 29.1094,-2.25 C28.7031,-1.4375 28.1432,-0.817708 27.4297,-0.390625 C26.7161,0.0364583 25.9115,0.25 25.0156,0.25 C23.474,0.25 22.2188,-0.315104 21.25,-1.44531 C20.2813,-2.57552 19.7969,-4.4375 19.7969,-7.03125 C19.7969,-9.9375 20.3333,-12.0521 21.4063,-13.375 C22.3333,-14.5208 23.5938,-15.0938 25.1875,-15.0938 C26.3646,-15.0938 27.3307,-14.763 28.0859,-14.1016 C28.8411,-13.4401 29.2969,-12.5208 29.4531,-11.3438 M21.9063,-4.875 C21.9063,-4.23958 22.0417,-3.63021 22.3125,-3.04688 C22.5833,-2.46354 22.9609,-2.02083 23.4453,-1.71875 C23.9297,-1.41667 24.4427,-1.26563 24.9844,-1.26563 C25.7552,-1.26563 26.4219,-1.57813 26.9844,-2.20313 C27.5469,-2.82813 27.8281,-3.68229 27.8281,-4.76563 C27.8281,-5.80729 27.5521,-6.6276 27,-7.22656 C26.4479,-7.82552 25.75,-8.125 24.9063,-8.125 C24.0729,-8.125 23.3646,-7.82552 22.7813,-7.22656 C22.1979,-6.6276 21.9063,-5.84375 21.9063,-4.875 "/>
</g>

<g fill="#212121" fill-opacity="1" stroke="none" transform="matrix(0.375,0,0,0.375,267.75,26.7188)"
font-family="MS Shell Dlg 2" font-size="7.875" font-weight="400" font-style="normal" 
>
<path vector-effect="none" fill-rule="evenodd" d="M20.8281,0 L16.2656,0 L14.4531,-4.71875 L6.15625,-4.71875 L4.45313,0 L0,0 L8.07813,-20.7656 L12.5156,-20.7656 L20.8281,0 M13.1094,-8.21875 L10.25,-15.9219 L7.45313,-8.21875 L13.1094,-8.21875 M36.7656,0 L32.7813,0 L32.7813,-7.67188 C32.7813,-9.29688 32.6953,-10.349 32.5234,-10.8281 C32.3516,-11.3073 32.0755,-11.6771 31.6953,-11.9375 C31.3151,-12.1979 30.8542,-12.3281 30.3125,-12.3281 C29.625,-12.3281 29.0078,-12.1406 28.4609,-11.7656 C27.9141,-11.3906 27.5391,-10.8906 27.3359,-10.2656 C27.1328,-9.64063 27.0313,-8.48958 27.0313,-6.8125 L27.0313,0 L23.0469,0 L23.0469,-15.0313 L26.75,-15.0313 L26.75,-12.8281 C28.0625,-14.526 29.7135,-15.375 31.7031,-15.375 C32.5781,-15.375 33.3802,-15.2161 34.1094,-14.8984 C34.8385,-14.5807 35.3906,-14.1771 35.7656,-13.6875 C36.1406,-13.1979 36.401,-12.6432 36.5469,-12.0234 C36.6927,-11.4036 36.7656,-10.5104 36.7656,-9.34375 L36.7656,0 M40.7188,0.984375 L45.2656,1.54688 C45.3385,2.07813 45.5104,2.44271 45.7813,2.64063 C46.1563,2.92188 46.75,3.0625 47.5625,3.0625 C48.6042,3.0625 49.3854,2.90625 49.9063,2.59375 C50.25,2.38542 50.5156,2.05208 50.7031,1.59375 C50.8177,1.26042 50.875,0.651042 50.875,-0.234375 L50.875,-2.4375 C49.6875,-0.8125 48.1875,0 46.375,0 C44.3542,0 42.7552,-0.854167 41.5781,-2.5625 C40.651,-3.91667 40.1875,-5.59896 40.1875,-7.60938 C40.1875,-10.1302 40.7943,-12.0547 42.0078,-13.3828 C43.2214,-14.7109 44.7292,-15.375 46.5313,-15.375 C48.3958,-15.375 49.9323,-14.5573 51.1406,-12.9219 L51.1406,-15.0313 L54.8594,-15.0313 L54.8594,-1.54688 C54.8594,0.234375 54.7135,1.5625 54.4219,2.4375 C54.1302,3.3125 53.7188,4 53.1875,4.5 C52.6563,5 51.9505,5.39323 51.0703,5.67969 C50.1901,5.96615 49.0729,6.10938 47.7188,6.10938 C45.1771,6.10938 43.3724,5.67188 42.3047,4.79688 C41.237,3.92188 40.7031,2.8125 40.7031,1.46875 C40.7031,1.34375 40.7083,1.18229 40.7188,0.984375 M44.2656,-7.82813 C44.2656,-6.23438 44.5755,-5.06771 45.1953,-4.32813 C45.8151,-3.58854 46.5781,-3.21875 47.4844,-3.21875 C48.4531,-3.21875 49.2734,-3.59896 49.9453,-4.35938 C50.6172,-5.11979 50.9531,-6.24479 50.9531,-7.73438 C50.9531,-9.28646 50.6328,-10.4401 49.9922,-11.1953 C49.3516,-11.9505 48.5365,-12.3281 47.5469,-12.3281 C46.599,-12.3281 45.8151,-11.9583 45.1953,-11.2188 C44.5755,-10.4792 44.2656,-9.34896 44.2656,-7.82813 M68.9844,0 L68.9844,-2.25 C68.4323,-1.44792 67.7109,-0.815104 66.8203,-0.351563 C65.9297,0.111979 64.9896,0.34375 64,0.34375 C62.9896,0.34375 62.0833,0.122396 61.2813,-0.320313 C60.4792,-0.763021 59.8984,-1.38802 59.5391,-2.19531 C59.1797,-3.0026 59,-4.10938 59,-5.51563 L59,-15.0313 L62.9688,-15.0313 L62.9688,-8.125 C62.9688,-6.01042 63.0443,-4.71615 63.1953,-4.24219 C63.3464,-3.76823 63.6146,-3.39063 64,-3.10938 C64.3854,-2.82813 64.875,-2.6875 65.4688,-2.6875 C66.1458,-2.6875 66.7552,-2.875 67.2969,-3.25 C67.8385,-3.625 68.2083,-4.08854 68.4063,-4.64063 C68.6042,-5.19271 68.7031,-6.54167 68.7031,-8.6875 L68.7031,-15.0313 L72.6719,-15.0313 L72.6719,0 L68.9844,0 M77.0781,0 L77.0781,-20.7656 L81.0625,-20.7656 L81.0625,0 L77.0781,0 M88.0625,-10.4531 L84.4375,-11.1094 C84.8438,-12.5573 85.5443,-13.6302 86.5391,-14.3281 C87.5339,-15.026 89.0052,-15.375 90.9531,-15.375 C92.7344,-15.375 94.0573,-15.1667 94.9219,-14.75 C95.7865,-14.3333 96.3958,-13.7995 96.75,-13.1484 C97.1042,-12.4974 97.2813,-11.3125 97.2813,-9.59375 L97.25,-4.9375 C97.25,-3.61458 97.3125,-2.64063 97.4375,-2.01563 C97.5625,-1.39063 97.8021,-0.71875 98.1563,0 L94.2188,0 C94.1146,-0.260417 93.9844,-0.651042 93.8281,-1.17188 C93.7656,-1.41146 93.7188,-1.56771 93.6875,-1.64063 C93.0104,-0.984375 92.2839,-0.489583 91.5078,-0.15625 C90.7318,0.177083 89.9063,0.34375 89.0313,0.34375 C87.4792,0.34375 86.2578,-0.078125 85.3672,-0.921875 C84.4766,-1.76563 84.0313,-2.82813 84.0313,-4.10938 C84.0313,-4.95313 84.2344,-5.70833 84.6406,-6.375 C85.0469,-7.04167 85.6172,-7.55208 86.3516,-7.90625 C87.0859,-8.26042 88.1406,-8.57292 89.5156,-8.84375 C91.3698,-9.1875 92.6563,-9.51042 93.375,-9.8125 L93.375,-10.2031 C93.375,-10.974 93.1875,-11.5208 92.8125,-11.8438 C92.4375,-12.1667 91.724,-12.3281 90.6719,-12.3281 C89.9635,-12.3281 89.4115,-12.1901 89.0156,-11.9141 C88.6198,-11.638 88.3021,-11.151 88.0625,-10.4531 M93.375,-7.21875 C92.8646,-7.05208 92.0573,-6.85156 90.9531,-6.61719 C89.849,-6.38281 89.1302,-6.15104 88.7969,-5.92188 C88.276,-5.54688 88.0156,-5.07813 88.0156,-4.51563 C88.0156,-3.96354 88.224,-3.48438 88.6406,-3.07813 C89.0573,-2.67188 89.5833,-2.46875 90.2188,-2.46875 C90.9375,-2.46875 91.625,-2.70313 92.2813,-3.17188 C92.7604,-3.52604 93.0729,-3.96354 93.2188,-4.48438 C93.3229,-4.82813 93.375,-5.47396 93.375,-6.42188 L93.375,-7.21875 M104.891,0 L100.906,0 L100.906,-15.0313 L104.609,-15.0313 L104.609,-12.9063 C105.245,-13.9167 105.815,-14.5807 106.32,-14.8984 C106.826,-15.2161 107.396,-15.375 108.031,-15.375 C108.938,-15.375 109.813,-15.125 110.656,-14.625 L109.422,-11.1563 C108.755,-11.5938 108.13,-11.8125 107.547,-11.8125 C106.995,-11.8125 106.526,-11.6589 106.141,-11.3516 C105.755,-11.0443 105.451,-10.4896 105.227,-9.6875 C105.003,-8.88542 104.891,-7.20313 104.891,-4.64063 L104.891,0 M120.047,0 L120.047,-20.7656 L126.328,-20.7656 L130.094,-6.59375 L133.813,-20.7656 L140.109,-20.7656 L140.109,0 L136.203,0 L136.203,-16.3438 L132.094,0 L128.047,0 L123.953,-16.3438 L123.953,0 L120.047,0 M143.156,-7.73438 C143.156,-9.05729 143.482,-10.3359 144.133,-11.5703 C144.784,-12.8047 145.708,-13.7474 146.906,-14.3984 C148.104,-15.0495 149.438,-15.375 150.906,-15.375 C153.177,-15.375 155.042,-14.638 156.5,-13.1641 C157.958,-11.6901 158.688,-9.82292 158.688,-7.5625 C158.688,-5.29167 157.953,-3.40625 156.484,-1.90625 C155.016,-0.40625 153.167,0.34375 150.938,0.34375 C149.563,0.34375 148.247,0.03125 146.992,-0.59375 C145.737,-1.21875 144.784,-2.13281 144.133,-3.33594 C143.482,-4.53906 143.156,-6.00521 143.156,-7.73438 M147.234,-7.51563 C147.234,-6.02604 147.589,-4.88542 148.297,-4.09375 C149.005,-3.30208 149.88,-2.90625 150.922,-2.90625 C151.964,-2.90625 152.836,-3.30208 153.539,-4.09375 C154.242,-4.88542 154.594,-6.03646 154.594,-7.54688 C154.594,-9.01563 154.242,-10.1484 153.539,-10.9453 C152.836,-11.7422 151.964,-12.1406 150.922,-12.1406 C149.88,-12.1406 149.005,-11.7422 148.297,-10.9453 C147.589,-10.1484 147.234,-9.00521 147.234,-7.51563 M161.781,-15.0313 L165.453,-15.0313 L165.453,-12.9844 C166.766,-14.5781 168.328,-15.375 170.141,-15.375 C171.099,-15.375 171.932,-15.1771 172.641,-14.7813 C173.349,-14.3854 173.932,-13.7865 174.391,-12.9844 C175.047,-13.7865 175.758,-14.3854 176.523,-14.7813 C177.289,-15.1771 178.104,-15.375 178.969,-15.375 C180.073,-15.375 181.008,-15.151 181.773,-14.7031 C182.539,-14.2552 183.109,-13.599 183.484,-12.7344 C183.766,-12.0885 183.906,-11.0469 183.906,-9.60938 L183.906,0 L179.922,0 L179.922,-8.59375 C179.922,-10.0833 179.786,-11.0469 179.516,-11.4844 C179.141,-12.0469 178.573,-12.3281 177.813,-12.3281 C177.26,-12.3281 176.737,-12.1589 176.242,-11.8203 C175.747,-11.4818 175.393,-10.9844 175.18,-10.3281 C174.966,-9.67188 174.859,-8.63542 174.859,-7.21875 L174.859,0 L170.875,0 L170.875,-8.23438 C170.875,-9.70313 170.805,-10.6484 170.664,-11.0703 C170.523,-11.4922 170.305,-11.8073 170.008,-12.0156 C169.711,-12.224 169.307,-12.3281 168.797,-12.3281 C168.182,-12.3281 167.63,-12.1641 167.141,-11.8359 C166.651,-11.5078 166.299,-11.0313 166.086,-10.4063 C165.872,-9.78125 165.766,-8.75 165.766,-7.3125 L165.766,0 L161.781,0 L161.781,-15.0313 M196.797,-4.78125 L200.75,-4.125 C200.24,-2.66667 199.435,-1.55729 198.336,-0.796875 C197.237,-0.0364583 195.865,0.34375 194.219,0.34375 C191.604,0.34375 189.667,-0.510417 188.406,-2.21875 C187.417,-3.59375 186.922,-5.32292 186.922,-7.40625 C186.922,-9.89583 187.573,-11.8464 188.875,-13.2578 C190.177,-14.6693 191.823,-15.375 193.813,-15.375 C196.052,-15.375 197.818,-14.638 199.109,-13.1641 C200.401,-11.6901 201.021,-9.42708 200.969,-6.375 L191,-6.375 C191.031,-5.19792 191.352,-4.28125 191.961,-3.625 C192.57,-2.96875 193.333,-2.64063 194.25,-2.64063 C194.875,-2.64063 195.401,-2.8099 195.828,-3.14844 C196.255,-3.48698 196.578,-4.03125 196.797,-4.78125 M197.016,-8.8125 C196.984,-9.95833 196.688,-10.8307 196.125,-11.4297 C195.563,-12.0286 194.875,-12.3281 194.063,-12.3281 C193.188,-12.3281 192.469,-12.0156 191.906,-11.3906 C191.344,-10.7552 191.063,-9.89583 191.063,-8.8125 L197.016,-8.8125 M217.766,0 L213.781,0 L213.781,-7.67188 C213.781,-9.29688 213.695,-10.349 213.523,-10.8281 C213.352,-11.3073 213.076,-11.6771 212.695,-11.9375 C212.315,-12.1979 211.854,-12.3281 211.313,-12.3281 C210.625,-12.3281 210.008,-12.1406 209.461,-11.7656 C208.914,-11.3906 208.539,-10.8906 208.336,-10.2656 C208.133,-9.64063 208.031,-8.48958 208.031,-6.8125 L208.031,0 L204.047,0 L204.047,-15.0313 L207.75,-15.0313 L207.75,-12.8281 C209.063,-14.526 210.714,-15.375 212.703,-15.375 C213.578,-15.375 214.38,-15.2161 215.109,-14.8984 C215.839,-14.5807 216.391,-14.1771 216.766,-13.6875 C217.141,-13.1979 217.401,-12.6432 217.547,-12.0234 C217.693,-11.4036 217.766,-10.5104 217.766,-9.34375 L217.766,0 M228.984,-15.0313 L228.984,-11.8594 L226.266,-11.8594 L226.266,-5.8125 C226.266,-4.58333 226.292,-3.86719 226.344,-3.66406 C226.396,-3.46094 226.513,-3.29167 226.695,-3.15625 C226.878,-3.02083 227.099,-2.95313 227.359,-2.95313 C227.734,-2.95313 228.271,-3.08333 228.969,-3.34375 L229.297,-0.25 C228.38,0.145833 227.333,0.34375 226.156,0.34375 C225.438,0.34375 224.792,0.223958 224.219,-0.015625 C223.646,-0.255208 223.224,-0.567708 222.953,-0.953125 C222.682,-1.33854 222.495,-1.85417 222.391,-2.5 C222.307,-2.96875 222.266,-3.90625 222.266,-5.3125 L222.266,-11.8594 L220.438,-11.8594 L220.438,-15.0313 L222.266,-15.0313 L222.266,-18.0313 L226.266,-20.3438 L226.266,-15.0313 L228.984,-15.0313 M241.984,0 L241.984,-2.25 C241.432,-1.44792 240.711,-0.815104 239.82,-0.351563 C238.93,0.111979 237.99,0.34375 237,0.34375 C235.99,0.34375 235.083,0.122396 234.281,-0.320313 C233.479,-0.763021 232.898,-1.38802 232.539,-2.19531 C232.18,-3.0026 232,-4.10938 232,-5.51563 L232,-15.0313 L235.969,-15.0313 L235.969,-8.125 C235.969,-6.01042 236.044,-4.71615 236.195,-4.24219 C236.346,-3.76823 236.615,-3.39063 237,-3.10938 C237.385,-2.82813 237.875,-2.6875 238.469,-2.6875 C239.146,-2.6875 239.755,-2.875 240.297,-3.25 C240.839,-3.625 241.208,-4.08854 241.406,-4.64063 C241.604,-5.19271 241.703,-6.54167 241.703,-8.6875 L241.703,-15.0313 L245.672,-15.0313 L245.672,0 L241.984,0 M249.781,-15.0313 L253.453,-15.0313 L253.453,-12.9844 C254.766,-14.5781 256.328,-15.375 258.141,-15.375 C259.099,-15.375 259.932,-15.1771 260.641,-14.7813 C261.349,-14.3854 261.932,-13.7865 262.391,-12.9844 C263.047,-13.7865 263.758,-14.3854 264.523,-14.7813 C265.289,-15.1771 266.104,-15.375 266.969,-15.375 C268.073,-15.375 269.008,-15.151 269.773,-14.7031 C270.539,-14.2552 271.109,-13.599 271.484,-12.7344 C271.766,-12.0885 271.906,-11.0469 271.906,-9.60938 L271.906,0 L267.922,0 L267.922,-8.59375 C267.922,-10.0833 267.786,-11.0469 267.516,-11.4844 C267.141,-12.0469 266.573,-12.3281 265.813,-12.3281 C265.26,-12.3281 264.737,-12.1589 264.242,-11.8203 C263.747,-11.4818 263.393,-10.9844 263.18,-10.3281 C262.966,-9.67188 262.859,-8.63542 262.859,-7.21875 L262.859,0 L258.875,0 L258.875,-8.23438 C258.875,-9.70313 258.805,-10.6484 258.664,-11.0703 C258.523,-11.4922 258.305,-11.8073 258.008,-12.0156 C257.711,-12.224 257.307,-12.3281 256.797,-12.3281 C256.182,-12.3281 255.63,-12.1641 255.141,-11.8359 C254.651,-11.5078 254.299,-11.0313 254.086,-10.4063 C253.872,-9.78125 253.766,-8.75 253.766,-7.3125 L253.766,0 L249.781,0 L249.781,-15.0313 M288.219,0 L282.156,-15.0313 L286.328,-15.0313 L289.172,-7.35938 L289.984,-4.79688 C290.203,-5.45313 290.339,-5.88542 290.391,-6.09375 C290.526,-6.51042 290.672,-6.93229 290.828,-7.35938 L293.688,-15.0313 L297.781,-15.0313 L291.797,0 L288.219,0 M298.688,-4.29688 L302.672,-4.90625 C302.839,-4.125 303.182,-3.53385 303.703,-3.13281 C304.224,-2.73177 304.953,-2.53125 305.891,-2.53125 C306.922,-2.53125 307.693,-2.71875 308.203,-3.09375 C308.557,-3.36458 308.734,-3.71875 308.734,-4.15625 C308.734,-4.45833 308.641,-4.70833 308.453,-4.90625 C308.255,-5.10417 307.813,-5.28125 307.125,-5.4375 C303.917,-6.14583 301.88,-6.79167 301.016,-7.375 C299.828,-8.1875 299.234,-9.31771 299.234,-10.7656 C299.234,-12.0677 299.747,-13.1615 300.773,-14.0469 C301.799,-14.9323 303.396,-15.375 305.563,-15.375 C307.625,-15.375 309.156,-15.0417 310.156,-14.375 C311.156,-13.7083 311.844,-12.7188 312.219,-11.4063 L308.469,-10.7031 C308.302,-11.2865 307.995,-11.7344 307.547,-12.0469 C307.099,-12.3594 306.458,-12.5156 305.625,-12.5156 C304.583,-12.5156 303.833,-12.3698 303.375,-12.0781 C303.073,-11.8698 302.922,-11.599 302.922,-11.2656 C302.922,-10.9844 303.057,-10.7448 303.328,-10.5469 C303.682,-10.2865 304.919,-9.91406 307.039,-9.42969 C309.159,-8.94531 310.641,-8.35417 311.484,-7.65625 C312.318,-6.94792 312.734,-5.96354 312.734,-4.70313 C312.734,-3.32813 312.156,-2.14323 311,-1.14844 C309.844,-0.153646 308.141,0.34375 305.891,0.34375 C303.839,0.34375 302.216,-0.0729167 301.023,-0.90625 C299.831,-1.73958 299.052,-2.86979 298.688,-4.29688 M324.125,0 L324.125,-20.7656 L328.313,-20.7656 L328.313,-12.5938 L336.531,-12.5938 L336.531,-20.7656 L340.719,-20.7656 L340.719,0 L336.531,0 L336.531,-9.07813 L328.313,-9.07813 L328.313,0 L324.125,0 M353.797,-4.78125 L357.75,-4.125 C357.24,-2.66667 356.435,-1.55729 355.336,-0.796875 C354.237,-0.0364583 352.865,0.34375 351.219,0.34375 C348.604,0.34375 346.667,-0.510417 345.406,-2.21875 C344.417,-3.59375 343.922,-5.32292 343.922,-7.40625 C343.922,-9.89583 344.573,-11.8464 345.875,-13.2578 C347.177,-14.6693 348.823,-15.375 350.813,-15.375 C353.052,-15.375 354.818,-14.638 356.109,-13.1641 C357.401,-11.6901 358.021,-9.42708 357.969,-6.375 L348,-6.375 C348.031,-5.19792 348.352,-4.28125 348.961,-3.625 C349.57,-2.96875 350.333,-2.64063 351.25,-2.64063 C351.875,-2.64063 352.401,-2.8099 352.828,-3.14844 C353.255,-3.48698 353.578,-4.03125 353.797,-4.78125 M354.016,-8.8125 C353.984,-9.95833 353.688,-10.8307 353.125,-11.4297 C352.563,-12.0286 351.875,-12.3281 351.063,-12.3281 C350.188,-12.3281 349.469,-12.0156 348.906,-11.3906 C348.344,-10.7552 348.063,-9.89583 348.063,-8.8125 L354.016,-8.8125 M361.078,0 L361.078,-20.7656 L365.063,-20.7656 L365.063,0 L361.078,0 M369.078,-17.0781 L369.078,-20.7656 L373.063,-20.7656 L373.063,-17.0781 L369.078,-17.0781 M369.078,0 L369.078,-15.0313 L373.063,-15.0313 L373.063,0 L369.078,0 M390.188,-10.5938 L386.266,-9.89063 C386.141,-10.6719 385.844,-11.2604 385.375,-11.6563 C384.906,-12.0521 384.297,-12.25 383.547,-12.25 C382.557,-12.25 381.768,-11.9089 381.18,-11.2266 C380.591,-10.5443 380.297,-9.39583 380.297,-7.78125 C380.297,-6 380.596,-4.74219 381.195,-4.00781 C381.794,-3.27344 382.599,-2.90625 383.609,-2.90625 C384.37,-2.90625 384.99,-3.11979 385.469,-3.54688 C385.948,-3.97396 386.286,-4.71354 386.484,-5.76563 L390.391,-5.09375 C389.984,-3.30208 389.206,-1.94792 388.055,-1.03125 C386.904,-0.114583 385.359,0.34375 383.422,0.34375 C381.224,0.34375 379.471,-0.351563 378.164,-1.74219 C376.857,-3.13281 376.203,-5.05208 376.203,-7.5 C376.203,-9.98958 376.859,-11.9245 378.172,-13.3047 C379.484,-14.6849 381.26,-15.375 383.5,-15.375 C385.333,-15.375 386.789,-14.9818 387.867,-14.1953 C388.945,-13.4089 389.719,-12.2083 390.188,-10.5938 M393.078,-17.0781 L393.078,-20.7656 L397.063,-20.7656 L397.063,-17.0781 L393.078,-17.0781 M393.078,0 L393.078,-15.0313 L397.063,-15.0313 L397.063,0 L393.078,0 M407.984,-15.0313 L407.984,-11.8594 L405.266,-11.8594 L405.266,-5.8125 C405.266,-4.58333 405.292,-3.86719 405.344,-3.66406 C405.396,-3.46094 405.513,-3.29167 405.695,-3.15625 C405.878,-3.02083 406.099,-2.95313 406.359,-2.95313 C406.734,-2.95313 407.271,-3.08333 407.969,-3.34375 L408.297,-0.25 C407.38,0.145833 406.333,0.34375 405.156,0.34375 C404.438,0.34375 403.792,0.223958 403.219,-0.015625 C402.646,-0.255208 402.224,-0.567708 401.953,-0.953125 C401.682,-1.33854 401.495,-1.85417 401.391,-2.5 C401.307,-2.96875 401.266,-3.90625 401.266,-5.3125 L401.266,-11.8594 L399.438,-11.8594 L399.438,-15.0313 L401.266,-15.0313 L401.266,-18.0313 L405.266,-20.3438 L405.266,-15.0313 L407.984,-15.0313 M409.203,-15.0313 L413.438,-15.0313 L417.031,-4.35938 L420.547,-15.0313 L424.656,-15.0313 L419.344,-0.5625 L418.406,2.04688 C418.052,2.93229 417.719,3.60677 417.406,4.07031 C417.094,4.53385 416.732,4.90885 416.32,5.19531 C415.909,5.48177 415.404,5.70573 414.805,5.86719 C414.206,6.02865 413.526,6.10938 412.766,6.10938 C412.005,6.10938 411.255,6.02604 410.516,5.85938 L410.156,2.75 C410.781,2.875 411.344,2.9375 411.844,2.9375 C412.771,2.9375 413.456,2.66406 413.898,2.11719 C414.341,1.57031 414.682,0.880208 414.922,0.046875 L409.203,-15.0313"/>
</g>

<g fill="none" stroke="#1171be" stroke-opacity="1" stroke-width="1.33333" stroke-linecap="butt" stroke-linejoin="round" transform="matrix(0.375,0,0,0.375,0,0)"
font-family="MS Shell Dlg 2" font-size="7.875" font-weight="400" font-style="normal" 
>
<polyline fill="none" vector-effect="none" points="233,582.714 288.48,582.714 343.96,574.011 399.44,613.176 454.92,513.087 510.4,578.363 565.88,582.714 621.36,591.418 676.84,595.769 732.32,669.748 787.8,617.528 843.28,626.231 898.76,652.341 954.24,608.824 1009.72,547.901 1065.2,739.375 1120.68,582.714 1176.16,547.901 1231.64,634.934 1287.12,426.054 1342.6,391.24 1398.08,513.087 1453.56,391.24 1509.04,478.274 1564.52,530.494 1620,582.714 " />
</g>

<g fill="none" stroke="#dd5400" stroke-opacity="1" stroke-width="1.33333" stroke-linecap="butt" stroke-linejoin="round" transform="matrix(0.375,0,0,0.375,0,0)"
font-family="MS Shell Dlg 2" font-size="7.875" font-weight="400" font-style="normal" 
>
<polyline fill="none" vector-effect="none" points="233,582.714 288.48,565.308 343.96,591.418 399.44,560.956 454.92,574.011 510.4,552.253 565.88,547.901 621.36,608.824 676.84,591.418 732.32,652.341 787.8,556.604 843.28,678.451 898.76,504.384 954.24,643.638 1009.72,652.341 1065.2,556.604 1120.68,843.815 1176.16,443.461 1231.64,547.901 1287.12,669.748 1342.6,687.155 1398.08,721.968 1453.56,478.274 1509.04,861.222 1564.52,513.087 1620,861.222 " />
</g>

<g fill="none" stroke="#edb120" stroke-opacity="1" stroke-width="1.33333" stroke-linecap="butt" stroke-linejoin="round" transform="matrix(0.375,0,0,0.375,0,0)"
font-family="MS Shell Dlg 2" font-size="7.875" font-weight="400" font-style="normal" 
>
<polyline fill="none" vector-effect="none" points="233,582.714 288.48,600.121 343.96,565.308 399.44,634.934 454.92,521.791 510.4,608.824 565.88,617.528 621.36,565.308 676.84,587.066 732.32,600.121 787.8,643.638 843.28,530.494 898.76,730.671 954.24,547.901 1009.72,478.274 1065.2,765.485 1120.68,321.614 1176.16,687.155 1231.64,669.748 1287.12,339.02 1342.6,286.8 1398.08,373.834 1453.56,495.681 1509.04,199.767 1564.52,600.121 1620,304.207 " />
</g>

<g fill="#ffffff" fill-opacity="1" stroke="none" transform="matrix(3.75e-05,0,0,3.75e-05,0,0)"
font-family="MS Shell Dlg 2" font-size="7.875" font-weight="400" font-style="normal" 
>
<path vector-effect="none" fill-rule="evenodd" d="M1.287e+07,1.02e+06 L1.287e+07,1.93e+06 L1.599e+07,1.93e+06 L1.599e+07,1.02e+06 L1.287e+07,1.02e+06"/>
</g>

<g fill="#1171be" fill-opacity="1" stroke="#1171be" stroke-opacity="1" stroke-width="1.33333" stroke-linecap="butt" stroke-linejoin="round" transform="matrix(0.375,0,0,0.375,0,0)"
font-family="MS Shell Dlg 2" font-size="7.875" font-weight="400" font-style="normal" 
>
<polyline fill="none" vector-effect="none" points="1295,119.5 1375,119.5 " />
</g>

<g fill="#dd5400" fill-opacity="1" stroke="#dd5400" stroke-opacity="1" stroke-width="1.33333" stroke-linecap="butt" stroke-linejoin="round" transform="matrix(0.375,0,0,0.375,0,0)"
font-family="MS Shell Dlg 2" font-size="7.875" font-weight="400" font-style="normal" 
>
<polyline fill="none" vector-effect="none" points="1295,147.5 1375,147.5 " />
</g>

<g fill="#edb120" fill-opacity="1" stroke="#edb120" stroke-opacity="1" stroke-width="1.33333" stroke-linecap="butt" stroke-linejoin="round" transform="matrix(0.375,0,0,0.375,0,0)"
font-family="MS Shell Dlg 2" font-size="7.875" font-weight="400" font-style="normal" 
>
<polyline fill="none" vector-effect="none" points="1295,175.5 1375,175.5 " />
</g>

<g fill="#212121" fill-opacity="1" stroke="none" transform="matrix(0.375,0,0,0.375,517.875,47.8125)"
font-family="MS Shell Dlg 2" font-size="7.875" font-weight="400" font-style="normal" 
>
<path vector-effect="none" fill-rule="evenodd" d="M-0.03125,0 L6.5625,-17.1875 L9.01563,-17.1875 L16.0469,0 L13.4531,0 L11.4531,-5.20313 L4.26563,-5.20313 L2.375,0 L-0.03125,0 M4.92188,-7.0625 L10.75,-7.0625 L8.95313,-11.8125 C8.41146,-13.2604 8.00521,-14.4479 7.73438,-15.375 C7.51563,-14.2708 7.20833,-13.1771 6.8125,-12.0938 L4.92188,-7.0625 M17.5781,0 L17.5781,-12.4531 L19.4844,-12.4531 L19.4844,-10.6719 C20.401,-12.0469 21.7188,-12.7344 23.4375,-12.7344 C24.1875,-12.7344 24.8776,-12.599 25.5078,-12.3281 C26.138,-12.0573 26.6094,-11.7031 26.9219,-11.2656 C27.2344,-10.8281 27.4531,-10.3073 27.5781,-9.70313 C27.6615,-9.31771 27.7031,-8.63542 27.7031,-7.65625 L27.7031,0 L25.5938,0 L25.5938,-7.57813 C25.5938,-8.43229 25.5104,-9.07292 25.3438,-9.5 C25.1771,-9.92708 24.8854,-10.2682 24.4688,-10.5234 C24.0521,-10.7786 23.5625,-10.9063 23,-10.9063 C22.1042,-10.9063 21.3281,-10.6198 20.6719,-10.0469 C20.0156,-9.47396 19.6875,-8.39063 19.6875,-6.79688 L19.6875,0 L17.5781,0 M30.2031,1.03125 L32.25,1.34375 C32.3333,1.96875 32.5729,2.42708 32.9688,2.71875 C33.4896,3.11458 34.2031,3.3125 35.1094,3.3125 C36.0885,3.3125 36.8438,3.11719 37.375,2.72656 C37.9063,2.33594 38.2656,1.78646 38.4531,1.07813 C38.5573,0.651042 38.6042,-0.25 38.5938,-1.625 C37.6771,-0.541667 36.5313,0 35.1563,0 C33.4479,0 32.125,-0.617188 31.1875,-1.85156 C30.25,-3.08594 29.7813,-4.56771 29.7813,-6.29688 C29.7813,-7.48438 29.9948,-8.58073 30.4219,-9.58594 C30.849,-10.5911 31.4714,-11.3672 32.2891,-11.9141 C33.1068,-12.4609 34.0677,-12.7344 35.1719,-12.7344 C36.6406,-12.7344 37.849,-12.1406 38.7969,-10.9531 L38.7969,-12.4531 L40.75,-12.4531 L40.75,-1.6875 C40.75,0.25 40.5521,1.6224 40.1563,2.42969 C39.7604,3.23698 39.1354,3.875 38.2813,4.34375 C37.4271,4.8125 36.375,5.04688 35.125,5.04688 C33.6354,5.04688 32.4349,4.71354 31.5234,4.04688 C30.612,3.38021 30.1719,2.375 30.2031,1.03125 M31.9375,-6.45313 C31.9375,-4.81771 32.263,-3.625 32.9141,-2.875 C33.5651,-2.125 34.3802,-1.75 35.3594,-1.75 C36.3281,-1.75 37.1406,-2.1224 37.7969,-2.86719 C38.4531,-3.61198 38.7813,-4.78125 38.7813,-6.375 C38.7813,-7.89583 38.4427,-9.04427 37.7656,-9.82031 C37.0885,-10.5964 36.2708,-10.9844 35.3125,-10.9844 C34.375,-10.9844 33.5781,-10.6042 32.9219,-9.84375 C32.2656,-9.08333 31.9375,-7.95313 31.9375,-6.45313 M51.7344,0 L51.7344,-1.82813 C50.7656,-0.421875 49.4531,0.28125 47.7969,0.28125 C47.0573,0.28125 46.3698,0.140625 45.7344,-0.140625 C45.099,-0.421875 44.6276,-0.776042 44.3203,-1.20313 C44.013,-1.63021 43.7969,-2.15104 43.6719,-2.76563 C43.5781,-3.18229 43.5313,-3.83854 43.5313,-4.73438 L43.5313,-12.4531 L45.6406,-12.4531 L45.6406,-5.54688 C45.6406,-4.44271 45.6875,-3.69792 45.7813,-3.3125 C45.9063,-2.76042 46.1849,-2.32552 46.6172,-2.00781 C47.0495,-1.6901 47.5833,-1.53125 48.2188,-1.53125 C48.8438,-1.53125 49.4349,-1.69531 49.9922,-2.02344 C50.5495,-2.35156 50.9427,-2.79427 51.1719,-3.35156 C51.401,-3.90885 51.5156,-4.71875 51.5156,-5.78125 L51.5156,-12.4531 L53.625,-12.4531 L53.625,0 L51.7344,0 M56.5313,0 L56.5313,-17.1875 L58.6406,-17.1875 L58.6406,0 L56.5313,0 M69.7031,-1.53125 C68.9219,-0.875 68.1693,-0.408854 67.4453,-0.132813 C66.7214,0.143229 65.9479,0.28125 65.125,0.28125 C63.7604,0.28125 62.7109,-0.0520833 61.9766,-0.71875 C61.2422,-1.38542 60.875,-2.23958 60.875,-3.28125 C60.875,-3.89583 61.013,-4.45313 61.2891,-4.95313 C61.5651,-5.45313 61.9271,-5.85677 62.375,-6.16406 C62.8229,-6.47135 63.3281,-6.70313 63.8906,-6.85938 C64.3073,-6.96354 64.9323,-7.06771 65.7656,-7.17188 C67.474,-7.38021 68.7292,-7.625 69.5313,-7.90625 C69.5417,-8.1875 69.5469,-8.36979 69.5469,-8.45313 C69.5469,-9.30729 69.3438,-9.91146 68.9375,-10.2656 C68.4063,-10.7448 67.6094,-10.9844 66.5469,-10.9844 C65.5469,-10.9844 64.8125,-10.8099 64.3438,-10.4609 C63.875,-10.112 63.526,-9.49479 63.2969,-8.60938 L61.2344,-8.89063 C61.4219,-9.77604 61.7292,-10.4896 62.1563,-11.0313 C62.5833,-11.5729 63.2031,-11.9922 64.0156,-12.2891 C64.8281,-12.5859 65.7708,-12.7344 66.8438,-12.7344 C67.9063,-12.7344 68.7708,-12.6094 69.4375,-12.3594 C70.1042,-12.1094 70.5938,-11.7943 70.9063,-11.4141 C71.2188,-11.0339 71.4375,-10.5521 71.5625,-9.96875 C71.625,-9.61458 71.6563,-8.96875 71.6563,-8.03125 L71.6563,-5.21875 C71.6563,-3.26042 71.7031,-2.02083 71.7969,-1.5 C71.8906,-0.979167 72.0677,-0.479167 72.3281,0 L70.125,0 C69.9063,-0.4375 69.7656,-0.947917 69.7031,-1.53125 M69.5313,-6.25 C68.7604,-5.9375 67.6094,-5.67188 66.0781,-5.45313 C65.2135,-5.32813 64.6016,-5.1875 64.2422,-5.03125 C63.8828,-4.875 63.6068,-4.64583 63.4141,-4.34375 C63.2214,-4.04167 63.125,-3.70833 63.125,-3.34375 C63.125,-2.78125 63.3359,-2.3125 63.7578,-1.9375 C64.1797,-1.5625 64.8021,-1.375 65.625,-1.375 C66.4375,-1.375 67.1615,-1.55208 67.7969,-1.90625 C68.4323,-2.26042 68.8958,-2.74479 69.1875,-3.35938 C69.4167,-3.83854 69.5313,-4.54167 69.5313,-5.46875 L69.5313,-6.25 M74.5625,0 L74.5625,-12.4531 L76.4531,-12.4531 L76.4531,-10.5625 C76.9427,-11.4479 77.3932,-12.0313 77.8047,-12.3125 C78.2161,-12.5938 78.6667,-12.7344 79.1563,-12.7344 C79.8646,-12.7344 80.5885,-12.5052 81.3281,-12.0469 L80.5938,-10.0938 C80.0833,-10.3958 79.5677,-10.5469 79.0469,-10.5469 C78.5885,-10.5469 78.1745,-10.4089 77.8047,-10.1328 C77.4349,-9.85677 77.1719,-9.47396 77.0156,-8.98438 C76.7865,-8.23438 76.6719,-7.41146 76.6719,-6.51563 L76.6719,0 L74.5625,0 M89.7813,0 L89.7813,-17.1875 L93.2031,-17.1875 L97.2656,-5.01563 C97.6406,-3.88021 97.9167,-3.03125 98.0938,-2.46875 C98.2917,-3.09375 98.5938,-4.01563 99,-5.23438 L103.125,-17.1875 L106.172,-17.1875 L106.172,0 L103.984,0 L103.984,-14.375 L99,0 L96.9375,0 L91.9688,-14.625 L91.9688,0 L89.7813,0 M108.797,-6.21875 C108.797,-8.53125 109.438,-10.2396 110.719,-11.3438 C111.792,-12.2708 113.099,-12.7344 114.641,-12.7344 C116.349,-12.7344 117.745,-12.1719 118.828,-11.0469 C119.911,-9.92188 120.453,-8.375 120.453,-6.40625 C120.453,-4.80208 120.214,-3.54167 119.734,-2.625 C119.255,-1.70833 118.557,-0.994792 117.641,-0.484375 C116.724,0.0260417 115.724,0.28125 114.641,0.28125 C112.891,0.28125 111.479,-0.278646 110.406,-1.39844 C109.333,-2.51823 108.797,-4.125 108.797,-6.21875 M110.969,-6.21875 C110.969,-4.625 111.315,-3.43229 112.008,-2.64063 C112.701,-1.84896 113.578,-1.45313 114.641,-1.45313 C115.682,-1.45313 116.552,-1.85156 117.25,-2.64844 C117.948,-3.44531 118.297,-4.66146 118.297,-6.29688 C118.297,-7.83854 117.945,-9.00521 117.242,-9.79688 C116.539,-10.5885 115.672,-10.9844 114.641,-10.9844 C113.578,-10.9844 112.701,-10.5885 112.008,-9.79688 C111.315,-9.00521 110.969,-7.8125 110.969,-6.21875 M122.578,0 L122.578,-12.4531 L124.469,-12.4531 L124.469,-10.7031 C124.865,-11.3073 125.385,-11.7969 126.031,-12.1719 C126.677,-12.5469 127.417,-12.7344 128.25,-12.7344 C129.167,-12.7344 129.919,-12.5417 130.508,-12.1563 C131.096,-11.7708 131.516,-11.2344 131.766,-10.5469 C132.745,-12.0052 134.026,-12.7344 135.609,-12.7344 C136.839,-12.7344 137.786,-12.3906 138.453,-11.7031 C139.12,-11.0156 139.453,-9.96354 139.453,-8.54688 L139.453,0 L137.344,0 L137.344,-7.84375 C137.344,-8.6875 137.276,-9.29427 137.141,-9.66406 C137.005,-10.0339 136.758,-10.3333 136.398,-10.5625 C136.039,-10.7917 135.62,-10.9063 135.141,-10.9063 C134.266,-10.9063 133.539,-10.6146 132.961,-10.0313 C132.383,-9.44792 132.094,-8.51563 132.094,-7.23438 L132.094,0 L129.984,0 L129.984,-8.09375 C129.984,-9.03125 129.813,-9.73438 129.469,-10.2031 C129.125,-10.6719 128.563,-10.9063 127.781,-10.9063 C127.188,-10.9063 126.638,-10.75 126.133,-10.4375 C125.628,-10.125 125.26,-9.66667 125.031,-9.0625 C124.802,-8.45833 124.688,-7.58854 124.688,-6.45313 L124.688,0 L122.578,0 M151.109,-4.01563 L153.281,-3.73438 C152.938,-2.46354 152.302,-1.47656 151.375,-0.773438 C150.448,-0.0703125 149.26,0.28125 147.813,0.28125 C145.99,0.28125 144.544,-0.278646 143.477,-1.39844 C142.409,-2.51823 141.875,-4.09375 141.875,-6.125 C141.875,-8.21875 142.414,-9.84375 143.492,-11 C144.57,-12.1563 145.969,-12.7344 147.688,-12.7344 C149.354,-12.7344 150.716,-12.1667 151.773,-11.0313 C152.831,-9.89583 153.359,-8.30208 153.359,-6.25 C153.359,-6.125 153.354,-5.9375 153.344,-5.6875 L144.063,-5.6875 C144.135,-4.32292 144.521,-3.27604 145.219,-2.54688 C145.917,-1.81771 146.786,-1.45313 147.828,-1.45313 C148.599,-1.45313 149.258,-1.65625 149.805,-2.0625 C150.352,-2.46875 150.786,-3.11979 151.109,-4.01563 M144.172,-7.42188 L151.125,-7.42188 C151.031,-8.46354 150.766,-9.25 150.328,-9.78125 C149.661,-10.5938 148.792,-11 147.719,-11 C146.75,-11 145.935,-10.6745 145.273,-10.0234 C144.612,-9.3724 144.245,-8.50521 144.172,-7.42188 M155.578,0 L155.578,-12.4531 L157.484,-12.4531 L157.484,-10.6719 C158.401,-12.0469 159.719,-12.7344 161.438,-12.7344 C162.188,-12.7344 162.878,-12.599 163.508,-12.3281 C164.138,-12.0573 164.609,-11.7031 164.922,-11.2656 C165.234,-10.8281 165.453,-10.3073 165.578,-9.70313 C165.661,-9.31771 165.703,-8.63542 165.703,-7.65625 L165.703,0 L163.594,0 L163.594,-7.57813 C163.594,-8.43229 163.51,-9.07292 163.344,-9.5 C163.177,-9.92708 162.885,-10.2682 162.469,-10.5234 C162.052,-10.7786 161.563,-10.9063 161,-10.9063 C160.104,-10.9063 159.328,-10.6198 158.672,-10.0469 C158.016,-9.47396 157.688,-8.39063 157.688,-6.79688 L157.688,0 L155.578,0 M173.188,-1.89063 L173.5,-0.03125 C172.906,0.104167 172.375,0.171875 171.906,0.171875 C171.135,0.171875 170.539,0.0494792 170.117,-0.195313 C169.695,-0.440104 169.398,-0.760417 169.227,-1.15625 C169.055,-1.55208 168.969,-2.38021 168.969,-3.64063 L168.969,-10.8125 L167.422,-10.8125 L167.422,-12.4531 L168.969,-12.4531 L168.969,-15.5313 L171.063,-16.7969 L171.063,-12.4531 L173.188,-12.4531 L173.188,-10.8125 L171.063,-10.8125 L171.063,-3.53125 C171.063,-2.92708 171.102,-2.53906 171.18,-2.36719 C171.258,-2.19531 171.38,-2.0599 171.547,-1.96094 C171.714,-1.86198 171.953,-1.8125 172.266,-1.8125 C172.495,-1.8125 172.802,-1.83854 173.188,-1.89063 M183.734,0 L183.734,-1.82813 C182.766,-0.421875 181.453,0.28125 179.797,0.28125 C179.057,0.28125 178.37,0.140625 177.734,-0.140625 C177.099,-0.421875 176.628,-0.776042 176.32,-1.20313 C176.013,-1.63021 175.797,-2.15104 175.672,-2.76563 C175.578,-3.18229 175.531,-3.83854 175.531,-4.73438 L175.531,-12.4531 L177.641,-12.4531 L177.641,-5.54688 C177.641,-4.44271 177.688,-3.69792 177.781,-3.3125 C177.906,-2.76042 178.185,-2.32552 178.617,-2.00781 C179.049,-1.6901 179.583,-1.53125 180.219,-1.53125 C180.844,-1.53125 181.435,-1.69531 181.992,-2.02344 C182.549,-2.35156 182.943,-2.79427 183.172,-3.35156 C183.401,-3.90885 183.516,-4.71875 183.516,-5.78125 L183.516,-12.4531 L185.625,-12.4531 L185.625,0 L183.734,0 M188.578,0 L188.578,-12.4531 L190.469,-12.4531 L190.469,-10.7031 C190.865,-11.3073 191.385,-11.7969 192.031,-12.1719 C192.677,-12.5469 193.417,-12.7344 194.25,-12.7344 C195.167,-12.7344 195.919,-12.5417 196.508,-12.1563 C197.096,-11.7708 197.516,-11.2344 197.766,-10.5469 C198.745,-12.0052 200.026,-12.7344 201.609,-12.7344 C202.839,-12.7344 203.786,-12.3906 204.453,-11.7031 C205.12,-11.0156 205.453,-9.96354 205.453,-8.54688 L205.453,0 L203.344,0 L203.344,-7.84375 C203.344,-8.6875 203.276,-9.29427 203.141,-9.66406 C203.005,-10.0339 202.758,-10.3333 202.398,-10.5625 C202.039,-10.7917 201.62,-10.9063 201.141,-10.9063 C200.266,-10.9063 199.539,-10.6146 198.961,-10.0313 C198.383,-9.44792 198.094,-8.51563 198.094,-7.23438 L198.094,0 L195.984,0 L195.984,-8.09375 C195.984,-9.03125 195.813,-9.73438 195.469,-10.2031 C195.125,-10.6719 194.563,-10.9063 193.781,-10.9063 C193.188,-10.9063 192.638,-10.75 192.133,-10.4375 C191.628,-10.125 191.26,-9.66667 191.031,-9.0625 C190.802,-8.45833 190.688,-7.58854 190.688,-6.45313 L190.688,0 L188.578,0"/>
</g>

<g fill="#212121" fill-opacity="1" stroke="none" transform="matrix(0.375,0,0,0.375,517.875,58.3125)"
font-family="MS Shell Dlg 2" font-size="7.875" font-weight="400" font-style="normal" 
>
<path vector-effect="none" fill-rule="evenodd" d="M1.92188,0 L1.92188,-17.1875 L4.20313,-17.1875 L4.20313,-10.125 L13.125,-10.125 L13.125,-17.1875 L15.4063,-17.1875 L15.4063,0 L13.125,0 L13.125,-8.09375 L4.20313,-8.09375 L4.20313,0 L1.92188,0 M27.1094,-4.01563 L29.2813,-3.73438 C28.9375,-2.46354 28.3021,-1.47656 27.375,-0.773438 C26.4479,-0.0703125 25.2604,0.28125 23.8125,0.28125 C21.9896,0.28125 20.5443,-0.278646 19.4766,-1.39844 C18.4089,-2.51823 17.875,-4.09375 17.875,-6.125 C17.875,-8.21875 18.4141,-9.84375 19.4922,-11 C20.5703,-12.1563 21.9688,-12.7344 23.6875,-12.7344 C25.3542,-12.7344 26.7161,-12.1667 27.7734,-11.0313 C28.8307,-9.89583 29.3594,-8.30208 29.3594,-6.25 C29.3594,-6.125 29.3542,-5.9375 29.3438,-5.6875 L20.0625,-5.6875 C20.1354,-4.32292 20.5208,-3.27604 21.2188,-2.54688 C21.9167,-1.81771 22.7865,-1.45313 23.8281,-1.45313 C24.599,-1.45313 25.2578,-1.65625 25.8047,-2.0625 C26.3516,-2.46875 26.7865,-3.11979 27.1094,-4.01563 M20.1719,-7.42188 L27.125,-7.42188 C27.0313,-8.46354 26.7656,-9.25 26.3281,-9.78125 C25.6615,-10.5938 24.7917,-11 23.7188,-11 C22.75,-11 21.9349,-10.6745 21.2734,-10.0234 C20.612,-9.3724 20.2448,-8.50521 20.1719,-7.42188 M31.5313,0 L31.5313,-17.1875 L33.6406,-17.1875 L33.6406,0 L31.5313,0 M36.5938,-14.75 L36.5938,-17.1875 L38.7031,-17.1875 L38.7031,-14.75 L36.5938,-14.75 M36.5938,0 L36.5938,-12.4531 L38.7031,-12.4531 L38.7031,0 L36.5938,0 M49.7031,-4.5625 L51.7813,-4.29688 C51.5521,-2.85938 50.9714,-1.73698 50.0391,-0.929688 C49.1068,-0.122396 47.9583,0.28125 46.5938,0.28125 C44.8958,0.28125 43.5286,-0.276042 42.4922,-1.39063 C41.4557,-2.50521 40.9375,-4.09896 40.9375,-6.17188 C40.9375,-7.51563 41.1615,-8.69271 41.6094,-9.70313 C42.0573,-10.7135 42.7344,-11.4714 43.6406,-11.9766 C44.5469,-12.4818 45.5365,-12.7344 46.6094,-12.7344 C47.9635,-12.7344 49.0703,-12.3906 49.9297,-11.7031 C50.7891,-11.0156 51.3385,-10.0469 51.5781,-8.79688 L49.5313,-8.46875 C49.3333,-9.3125 48.987,-9.94531 48.4922,-10.3672 C47.9974,-10.7891 47.3958,-11 46.6875,-11 C45.625,-11 44.763,-10.6172 44.1016,-9.85156 C43.4401,-9.08594 43.1094,-7.88021 43.1094,-6.23438 C43.1094,-4.56771 43.4297,-3.35417 44.0703,-2.59375 C44.7109,-1.83333 45.5469,-1.45313 46.5781,-1.45313 C47.401,-1.45313 48.0911,-1.70833 48.6484,-2.21875 C49.2057,-2.72917 49.5573,-3.51042 49.7031,-4.5625 M53.5938,-14.75 L53.5938,-17.1875 L55.7031,-17.1875 L55.7031,-14.75 L53.5938,-14.75 M53.5938,0 L53.5938,-12.4531 L55.7031,-12.4531 L55.7031,0 L53.5938,0 M63.1875,-1.89063 L63.5,-0.03125 C62.9063,0.104167 62.375,0.171875 61.9063,0.171875 C61.1354,0.171875 60.5391,0.0494792 60.1172,-0.195313 C59.6953,-0.440104 59.3984,-0.760417 59.2266,-1.15625 C59.0547,-1.55208 58.9688,-2.38021 58.9688,-3.64063 L58.9688,-10.8125 L57.4219,-10.8125 L57.4219,-12.4531 L58.9688,-12.4531 L58.9688,-15.5313 L61.0625,-16.7969 L61.0625,-12.4531 L63.1875,-12.4531 L63.1875,-10.8125 L61.0625,-10.8125 L61.0625,-3.53125 C61.0625,-2.92708 61.1016,-2.53906 61.1797,-2.36719 C61.2578,-2.19531 61.3802,-2.0599 61.5469,-1.96094 C61.7135,-1.86198 61.9531,-1.8125 62.2656,-1.8125 C62.4948,-1.8125 62.8021,-1.83854 63.1875,-1.89063 M65.4844,4.79688 L65.25,2.8125 C65.7188,2.9375 66.125,3 66.4688,3 C66.9375,3 67.3125,2.92188 67.5938,2.76563 C67.875,2.60938 68.1042,2.39063 68.2813,2.10938 C68.4167,1.90104 68.6302,1.38021 68.9219,0.546875 C68.9635,0.421875 69.026,0.25 69.1094,0.03125 L64.3906,-12.4531 L66.6563,-12.4531 L69.25,-5.23438 C69.5833,-4.32813 69.8854,-3.36979 70.1563,-2.35938 C70.3958,-3.32813 70.6823,-4.27083 71.0156,-5.1875 L73.6875,-12.4531 L75.7969,-12.4531 L71.0625,0.21875 C70.5521,1.58333 70.1563,2.52083 69.875,3.03125 C69.5,3.72917 69.0703,4.23958 68.5859,4.5625 C68.1016,4.88542 67.5208,5.04688 66.8438,5.04688 C66.4375,5.04688 65.9844,4.96354 65.4844,4.79688 "/>
</g>

<g fill="#212121" fill-opacity="1" stroke="none" transform="matrix(0.375,0,0,0.375,517.875,68.8125)"
font-family="MS Shell Dlg 2" font-size="7.875" font-weight="400" font-style="normal" 
>
<path vector-effect="none" fill-rule="evenodd" d="M1.85938,0 L1.85938,-17.1875 L7.76563,-17.1875 C9.10938,-17.1875 10.1302,-17.1042 10.8281,-16.9375 C11.8177,-16.7083 12.6563,-16.2969 13.3438,-15.7031 C14.25,-14.9427 14.9297,-13.9661 15.3828,-12.7734 C15.8359,-11.5807 16.0625,-10.2188 16.0625,-8.6875 C16.0625,-7.38542 15.9089,-6.22917 15.6016,-5.21875 C15.2943,-4.20833 14.9036,-3.3724 14.4297,-2.71094 C13.9557,-2.04948 13.4349,-1.53125 12.8672,-1.15625 C12.2995,-0.78125 11.6146,-0.494792 10.8125,-0.296875 C10.0104,-0.0989583 9.08854,0 8.04688,0 L1.85938,0 M4.125,-2.03125 L7.79688,-2.03125 C8.93229,-2.03125 9.82031,-2.13542 10.4609,-2.34375 C11.1016,-2.55208 11.6146,-2.84896 12,-3.23438 C12.5417,-3.77604 12.9635,-4.5026 13.2656,-5.41406 C13.5677,-6.32552 13.7188,-7.42708 13.7188,-8.71875 C13.7188,-10.5208 13.4219,-11.9036 12.8281,-12.8672 C12.2344,-13.8307 11.5156,-14.474 10.6719,-14.7969 C10.0677,-15.0365 9.08854,-15.1563 7.73438,-15.1563 L4.125,-15.1563 L4.125,-2.03125 M18.5938,-14.75 L18.5938,-17.1875 L20.7031,-17.1875 L20.7031,-14.75 L18.5938,-14.75 M18.5938,0 L18.5938,-12.4531 L20.7031,-12.4531 L20.7031,0 L18.5938,0 M24.0938,0 L24.0938,-10.8125 L22.2188,-10.8125 L22.2188,-12.4531 L24.0938,-12.4531 L24.0938,-13.7656 C24.0938,-14.6094 24.1667,-15.2344 24.3125,-15.6406 C24.5104,-16.1823 24.8672,-16.6224 25.3828,-16.9609 C25.8984,-17.2995 26.6146,-17.4688 27.5313,-17.4688 C28.125,-17.4688 28.7813,-17.401 29.5,-17.2656 L29.1875,-15.4219 C28.75,-15.5052 28.3333,-15.5469 27.9375,-15.5469 C27.3021,-15.5469 26.8516,-15.4089 26.5859,-15.1328 C26.3203,-14.8568 26.1875,-14.3438 26.1875,-13.5938 L26.1875,-12.4531 L28.6094,-12.4531 L28.6094,-10.8125 L26.1875,-10.8125 L26.1875,0 L24.0938,0 M30.0938,0 L30.0938,-10.8125 L28.2188,-10.8125 L28.2188,-12.4531 L30.0938,-12.4531 L30.0938,-13.7656 C30.0938,-14.6094 30.1667,-15.2344 30.3125,-15.6406 C30.5104,-16.1823 30.8672,-16.6224 31.3828,-16.9609 C31.8984,-17.2995 32.6146,-17.4688 33.5313,-17.4688 C34.125,-17.4688 34.7813,-17.401 35.5,-17.2656 L35.1875,-15.4219 C34.75,-15.5052 34.3333,-15.5469 33.9375,-15.5469 C33.3021,-15.5469 32.8516,-15.4089 32.5859,-15.1328 C32.3203,-14.8568 32.1875,-14.3438 32.1875,-13.5938 L32.1875,-12.4531 L34.6094,-12.4531 L34.6094,-10.8125 L32.1875,-10.8125 L32.1875,0 L30.0938,0 M45.1094,-4.01563 L47.2813,-3.73438 C46.9375,-2.46354 46.3021,-1.47656 45.375,-0.773438 C44.4479,-0.0703125 43.2604,0.28125 41.8125,0.28125 C39.9896,0.28125 38.5443,-0.278646 37.4766,-1.39844 C36.4089,-2.51823 35.875,-4.09375 35.875,-6.125 C35.875,-8.21875 36.4141,-9.84375 37.4922,-11 C38.5703,-12.1563 39.9688,-12.7344 41.6875,-12.7344 C43.3542,-12.7344 44.7161,-12.1667 45.7734,-11.0313 C46.8307,-9.89583 47.3594,-8.30208 47.3594,-6.25 C47.3594,-6.125 47.3542,-5.9375 47.3438,-5.6875 L38.0625,-5.6875 C38.1354,-4.32292 38.5208,-3.27604 39.2188,-2.54688 C39.9167,-1.81771 40.7865,-1.45313 41.8281,-1.45313 C42.599,-1.45313 43.2578,-1.65625 43.8047,-2.0625 C44.3516,-2.46875 44.7865,-3.11979 45.1094,-4.01563 M38.1719,-7.42188 L45.125,-7.42188 C45.0313,-8.46354 44.7656,-9.25 44.3281,-9.78125 C43.6615,-10.5938 42.7917,-11 41.7188,-11 C40.75,-11 39.9349,-10.6745 39.2734,-10.0234 C38.612,-9.3724 38.2448,-8.50521 38.1719,-7.42188 M49.5625,0 L49.5625,-12.4531 L51.4531,-12.4531 L51.4531,-10.5625 C51.9427,-11.4479 52.3932,-12.0313 52.8047,-12.3125 C53.2161,-12.5938 53.6667,-12.7344 54.1563,-12.7344 C54.8646,-12.7344 55.5885,-12.5052 56.3281,-12.0469 L55.5938,-10.0938 C55.0833,-10.3958 54.5677,-10.5469 54.0469,-10.5469 C53.5885,-10.5469 53.1745,-10.4089 52.8047,-10.1328 C52.4349,-9.85677 52.1719,-9.47396 52.0156,-8.98438 C51.7865,-8.23438 51.6719,-7.41146 51.6719,-6.51563 L51.6719,0 L49.5625,0 M66.1094,-4.01563 L68.2813,-3.73438 C67.9375,-2.46354 67.3021,-1.47656 66.375,-0.773438 C65.4479,-0.0703125 64.2604,0.28125 62.8125,0.28125 C60.9896,0.28125 59.5443,-0.278646 58.4766,-1.39844 C57.4089,-2.51823 56.875,-4.09375 56.875,-6.125 C56.875,-8.21875 57.4141,-9.84375 58.4922,-11 C59.5703,-12.1563 60.9688,-12.7344 62.6875,-12.7344 C64.3542,-12.7344 65.7161,-12.1667 66.7734,-11.0313 C67.8307,-9.89583 68.3594,-8.30208 68.3594,-6.25 C68.3594,-6.125 68.3542,-5.9375 68.3438,-5.6875 L59.0625,-5.6875 C59.1354,-4.32292 59.5208,-3.27604 60.2188,-2.54688 C60.9167,-1.81771 61.7865,-1.45313 62.8281,-1.45313 C63.599,-1.45313 64.2578,-1.65625 64.8047,-2.0625 C65.3516,-2.46875 65.7865,-3.11979 66.1094,-4.01563 M59.1719,-7.42188 L66.125,-7.42188 C66.0313,-8.46354 65.7656,-9.25 65.3281,-9.78125 C64.6615,-10.5938 63.7917,-11 62.7188,-11 C61.75,-11 60.9349,-10.6745 60.2734,-10.0234 C59.612,-9.3724 59.2448,-8.50521 59.1719,-7.42188 M70.5781,0 L70.5781,-12.4531 L72.4844,-12.4531 L72.4844,-10.6719 C73.401,-12.0469 74.7188,-12.7344 76.4375,-12.7344 C77.1875,-12.7344 77.8776,-12.599 78.5078,-12.3281 C79.138,-12.0573 79.6094,-11.7031 79.9219,-11.2656 C80.2344,-10.8281 80.4531,-10.3073 80.5781,-9.70313 C80.6615,-9.31771 80.7031,-8.63542 80.7031,-7.65625 L80.7031,0 L78.5938,0 L78.5938,-7.57813 C78.5938,-8.43229 78.5104,-9.07292 78.3438,-9.5 C78.1771,-9.92708 77.8854,-10.2682 77.4688,-10.5234 C77.0521,-10.7786 76.5625,-10.9063 76,-10.9063 C75.1042,-10.9063 74.3281,-10.6198 73.6719,-10.0469 C73.0156,-9.47396 72.6875,-8.39063 72.6875,-6.79688 L72.6875,0 L70.5781,0 M91.7031,-4.5625 L93.7813,-4.29688 C93.5521,-2.85938 92.9714,-1.73698 92.0391,-0.929688 C91.1068,-0.122396 89.9583,0.28125 88.5938,0.28125 C86.8958,0.28125 85.5286,-0.276042 84.4922,-1.39063 C83.4557,-2.50521 82.9375,-4.09896 82.9375,-6.17188 C82.9375,-7.51563 83.1615,-8.69271 83.6094,-9.70313 C84.0573,-10.7135 84.7344,-11.4714 85.6406,-11.9766 C86.5469,-12.4818 87.5365,-12.7344 88.6094,-12.7344 C89.9635,-12.7344 91.0703,-12.3906 91.9297,-11.7031 C92.7891,-11.0156 93.3385,-10.0469 93.5781,-8.79688 L91.5313,-8.46875 C91.3333,-9.3125 90.987,-9.94531 90.4922,-10.3672 C89.9974,-10.7891 89.3958,-11 88.6875,-11 C87.625,-11 86.763,-10.6172 86.1016,-9.85156 C85.4401,-9.08594 85.1094,-7.88021 85.1094,-6.23438 C85.1094,-4.56771 85.4297,-3.35417 86.0703,-2.59375 C86.7109,-1.83333 87.5469,-1.45313 88.5781,-1.45313 C89.401,-1.45313 90.0911,-1.70833 90.6484,-2.21875 C91.2057,-2.72917 91.5573,-3.51042 91.7031,-4.5625 M104.109,-4.01563 L106.281,-3.73438 C105.938,-2.46354 105.302,-1.47656 104.375,-0.773438 C103.448,-0.0703125 102.26,0.28125 100.813,0.28125 C98.9896,0.28125 97.5443,-0.278646 96.4766,-1.39844 C95.4089,-2.51823 94.875,-4.09375 94.875,-6.125 C94.875,-8.21875 95.4141,-9.84375 96.4922,-11 C97.5703,-12.1563 98.9688,-12.7344 100.688,-12.7344 C102.354,-12.7344 103.716,-12.1667 104.773,-11.0313 C105.831,-9.89583 106.359,-8.30208 106.359,-6.25 C106.359,-6.125 106.354,-5.9375 106.344,-5.6875 L97.0625,-5.6875 C97.1354,-4.32292 97.5208,-3.27604 98.2188,-2.54688 C98.9167,-1.81771 99.7865,-1.45313 100.828,-1.45313 C101.599,-1.45313 102.258,-1.65625 102.805,-2.0625 C103.352,-2.46875 103.786,-3.11979 104.109,-4.01563 M97.1719,-7.42188 L104.125,-7.42188 C104.031,-8.46354 103.766,-9.25 103.328,-9.78125 C102.661,-10.5938 101.792,-11 100.719,-11 C99.75,-11 98.9349,-10.6745 98.2734,-10.0234 C97.612,-9.3724 97.2448,-8.50521 97.1719,-7.42188 "/>
</g>

<g fill="none" stroke="#212121" stroke-opacity="1" stroke-width="1.33333" stroke-linecap="butt" stroke-linejoin="miter" stroke-miterlimit="2" transform="matrix(0.375,0,0,0.375,0,0)"
font-family="MS Shell Dlg 2" font-size="7.875" font-weight="400" font-style="normal" 
>
<path vector-effect="none" fill-rule="evenodd" d="M1287,193 L1287,102 L1599,102 L1599,193 L1287,193"/>
</g>
</g>
</svg>
